<?xml version="1.0" encoding="UTF-8"?>
<svg id="_Шар_2" data-name="Шар 2" xmlns="http://www.w3.org/2000/svg" viewBox="0 0 161.87 163.91">
  <defs>
    <style>
      .cls-1 {
        font-size: 12.82px;
      }

      .cls-1, .cls-2, .cls-3 {
        font-family: MyriadPro-Regular, 'Myriad Pro';
      }

      .cls-1, .cls-3 {
        fill: #8fc46e;
      }

      .cls-4 {
        fill: #eec9b8;
        stroke: #fff;
        stroke-miterlimit: 10;
      }

      .cls-2 {
        fill: #fff;
        font-size: 10.57px;
      }

      .cls-5 {
        fill: #34826d;
      }

      .cls-6 {
        fill: #43b388;
      }

      .cls-3 {
        font-size: 7.01px;
      }
    </style>
  </defs>
  <g id="_Шар_2-2" data-name="Шар 2">
    <g>
      <ellipse class="cls-6" cx="80.94" cy="81.96" rx="80.94" ry="81.96"/>
      <text class="cls-1" transform="translate(35.96 96.38) scale(.74 1)"><tspan x="0" y="0">HIG</tspan></text>
      <text class="cls-3" transform="translate(39.47 94.68) scale(.85 1)"><tspan x="0" y="0">HIG</tspan></text>
      <text class="cls-3" transform="translate(39.47 94.68) scale(.85 1)"><tspan x="0" y="0">HIG</tspan></text>
      <text class="cls-3" transform="translate(39.47 94.68) scale(.85 1)"><tspan x="0" y="0">HIG</tspan></text>
      <text class="cls-3" transform="translate(39.47 94.68) scale(.85 1)"><tspan x="0" y="0">HIG</tspan></text>
      <text class="cls-3" transform="translate(39.47 94.68) scale(.85 1)"><tspan x="0" y="0">HIG</tspan></text>
      <text class="cls-2" transform="translate(19.62 47.21) rotate(-57.7) scale(.96 1)"><tspan x="0" y="0">H</tspan></text>
      <text class="cls-2" transform="translate(23.13 41.72) rotate(-53.04) scale(.96 1)"><tspan x="0" y="0">e</tspan></text>
      <text class="cls-2" transform="translate(26.11 37.75) rotate(-49.1) scale(.96 1)"><tspan x="0" y="0">a</tspan></text>
      <text class="cls-2" transform="translate(29.28 34.12) rotate(-45.83) scale(.96 1)"><tspan x="0" y="0">r</tspan></text>
      <text class="cls-2" transform="translate(31.72 31.62) rotate(-42.99) scale(.96 1)"><tspan x="0" y="0">t</tspan></text>
      <text class="cls-2" transform="translate(34.14 29.37) rotate(-40.81) scale(.96 1)"><tspan x="0" y="0"> </tspan></text>
      <text class="cls-2" transform="translate(35.73 28) rotate(-39) scale(.96 1)"><tspan x="0" y="0">I</tspan></text>
      <text class="cls-2" transform="translate(37.6 26.43) rotate(-35.72) scale(.96 1)"><tspan x="0" y="0">n</tspan></text>
      <text class="cls-2" transform="translate(42.13 23.22) rotate(-32.62) scale(.96 1)"><tspan x="0" y="0"> </tspan></text>
      <text class="cls-2" transform="translate(43.81 22.06) rotate(-29.16) scale(.96 1)"><tspan x="0" y="0">G</tspan></text>
      <text class="cls-2" transform="translate(49.5 18.92) rotate(-24.46) scale(.96 1)"><tspan x="0" y="0">e</tspan></text>
      <text class="cls-2" transform="translate(54.04 16.86) rotate(-20.82) scale(.96 1)"><tspan x="0" y="0">s</tspan></text>
      <text class="cls-2" transform="translate(57.73 15.47) rotate(-17.85) scale(.96 1)"><tspan x="0" y="0">t</tspan></text>
      <text class="cls-2" transform="translate(60.83 14.43) rotate(-14.25) scale(.96 1)"><tspan x="0" y="0">u</tspan></text>
      <text class="cls-2" transform="translate(66.16 13.11) rotate(-10.69) scale(.96 1)"><tspan x="0" y="0">r</tspan></text>
      <text class="cls-2" transform="translate(69.25 12.49) rotate(-7.4) scale(.96 1)"><tspan x="0" y="0">e</tspan></text>
      <text class="cls-2" transform="translate(74.2 11.86) rotate(-3.79) scale(.96 1)"><tspan x="0" y="0">s</tspan></text>
      <text class="cls-2" transform="translate(78.15 11.62) rotate(-1.36) scale(.96 1)"><tspan x="0" y="0"> </tspan></text>
      <text class="cls-2" transform="translate(80.19 11.5) rotate(2.06) scale(.96 1)"><tspan x="0" y="0">H</tspan></text>
      <text class="cls-2" transform="translate(86.7 11.76) rotate(6.7) scale(.96 1)"><tspan x="0" y="0">e</tspan></text>
      <text class="cls-2" transform="translate(91.63 12.34) rotate(10.67) scale(.96 1)"><tspan x="0" y="0">a</tspan></text>
      <text class="cls-2" transform="translate(96.38 13.26) rotate(13.98) scale(.96 1)"><tspan x="0" y="0">r</tspan></text>
      <text class="cls-2" transform="translate(99.76 14.1) rotate(16.86) scale(.96 1)"><tspan x="0" y="0">t</tspan></text>
      <text class="cls-2" transform="translate(102.9 15.06) rotate(19.05) scale(.96 1)"><tspan x="0" y="0"> </tspan></text>
      <text class="cls-2" transform="translate(104.9 15.75) rotate(20.9) scale(.96 1)"><tspan x="0" y="0">I</tspan></text>
      <text class="cls-2" transform="translate(107.17 16.57) rotate(24.2) scale(.96 1)"><tspan x="0" y="0">n</tspan></text>
      <text class="cls-2" transform="translate(112.23 18.89) rotate(27.32) scale(.96 1)"><tspan x="0" y="0"> </tspan></text>
      <text class="cls-2" transform="translate(114.1 19.78) rotate(30.81) scale(.96 1)"><tspan x="0" y="0">G</tspan></text>
      <text class="cls-2" transform="translate(119.66 23.12) rotate(35.48) scale(.96 1)"><tspan x="0" y="0">e</tspan></text>
      <text class="cls-2" transform="translate(123.71 26.02) rotate(39.08) scale(.96 1)"><tspan x="0" y="0">s</tspan></text>
      <text class="cls-2" transform="translate(126.77 28.52) rotate(42.01) scale(.96 1)"><tspan x="0" y="0">t</tspan></text>
      <text class="cls-2" transform="translate(129.22 30.67) rotate(45.55) scale(.96 1)"><tspan x="0" y="0">u</tspan></text>
      <text class="cls-2" transform="translate(133.06 34.64) rotate(49.1) scale(.96 1)"><tspan x="0" y="0">r</tspan></text>
      <text class="cls-2" transform="translate(135.13 36.98) rotate(52.35) scale(.96 1)"><tspan x="0" y="0">e</tspan></text>
      <text class="cls-2" transform="translate(138.17 40.93) rotate(55.96) scale(.96 1)"><tspan x="0" y="0">s</tspan></text>
      <text class="cls-2" transform="translate(140.37 44.22) rotate(58.41) scale(.96 1)"><tspan x="0" y="0"> </tspan></text>
      <text class="cls-2" transform="translate(141.51 45.95) rotate(61.92) scale(.96 1)"><tspan x="0" y="0">H</tspan></text>
      <text class="cls-2" transform="translate(144.54 51.68) rotate(66.59) scale(.96 1)"><tspan x="0" y="0">e</tspan></text>
      <text class="cls-2" transform="translate(146.52 56.25) rotate(70.6) scale(.96 1)"><tspan x="0" y="0">a</tspan></text>
      <text class="cls-2" transform="translate(148.1 60.8) rotate(73.9) scale(.96 1)"><tspan x="0" y="0">r</tspan></text>
      <text class="cls-2" transform="translate(149.07 64.15) rotate(76.78) scale(.96 1)"><tspan x="0" y="0">t</tspan></text>
      <text class="cls-2" transform="translate(149.81 67.36) rotate(78.97) scale(.96 1)"><tspan x="0" y="0"> </tspan></text>
      <text class="cls-2" transform="translate(150.22 69.44) rotate(80.82) scale(.96 1)"><tspan x="0" y="0">I</tspan></text>
      <text class="cls-2" transform="translate(150.65 71.84) rotate(84.11) scale(.96 1)"><tspan x="0" y="0">n</tspan></text>
      <text class="cls-2" transform="translate(151.18 77.37) rotate(87.19) scale(.96 1)"><tspan x="0" y="0"> </tspan></text>
      <text class="cls-2" transform="translate(151.37 79.4) rotate(90.93) scale(.96 1)"><tspan x="0" y="0">G</tspan></text>
      <text class="cls-2" transform="translate(151.25 85.89) rotate(95.21) scale(.96 1)"><tspan x="0" y="0">e</tspan></text>
      <text class="cls-2" transform="translate(150.79 90.87) rotate(98.85) scale(.96 1)"><tspan x="0" y="0">s</tspan></text>
      <text class="cls-2" transform="translate(150.17 94.76) rotate(101.79) scale(.96 1)"><tspan x="0" y="0">t</tspan></text>
      <text class="cls-2" transform="translate(149.54 97.97) rotate(105.39) scale(.96 1)"><tspan x="0" y="0">u</tspan></text>
      <text class="cls-2" transform="translate(148.06 103.26) rotate(108.96) scale(.96 1)"><tspan x="0" y="0">r</tspan></text>
      <text class="cls-2" transform="translate(147.06 106.25) rotate(112.27) scale(.96 1)"><tspan x="0" y="0">e</tspan></text>
      <text class="cls-2" transform="translate(145.16 110.85) rotate(115.9) scale(.96 1)"><tspan x="0" y="0">s</tspan></text>
      <text class="cls-2" transform="translate(143.41 114.41) rotate(118.38) scale(.96 1)"><tspan x="0" y="0"> </tspan></text>
      <text class="cls-2" transform="translate(142.51 116.24) rotate(121.87) scale(.96 1)"><tspan x="0" y="0">H</tspan></text>
      <text class="cls-2" transform="translate(139.04 121.76) rotate(126.53) scale(.96 1)"><tspan x="0" y="0">e</tspan></text>
      <text class="cls-2" transform="translate(136.09 125.75) rotate(130.47) scale(.96 1)"><tspan x="0" y="0">a</tspan></text>
      <text class="cls-2" transform="translate(132.94 129.41) rotate(133.74) scale(.96 1)"><tspan x="0" y="0">r</tspan></text>
      <text class="cls-2" transform="translate(130.53 131.93) rotate(136.58) scale(.96 1)"><tspan x="0" y="0">t</tspan></text>
      <text class="cls-2" transform="translate(128.12 134.19) rotate(138.76) scale(.96 1)"><tspan x="0" y="0"> </tspan></text>
      <text class="cls-2" transform="translate(126.54 135.58) rotate(140.57) scale(.96 1)"><tspan x="0" y="0">I</tspan></text>
      <text class="cls-2" transform="translate(124.69 137.16) rotate(143.85) scale(.96 1)"><tspan x="0" y="0">n</tspan></text>
      <text class="cls-2" transform="translate(120.18 140.4) rotate(146.95) scale(.96 1)"><tspan x="0" y="0"> </tspan></text>
      <text class="cls-2" transform="translate(118.51 141.57) rotate(150.4) scale(.96 1)"><tspan x="0" y="0">G</tspan></text>
      <text class="cls-2" transform="translate(112.85 144.76) rotate(155.1) scale(.96 1)"><tspan x="0" y="0">e</tspan></text>
      <text class="cls-2" transform="translate(108.3 146.85) rotate(158.77) scale(.96 1)"><tspan x="0" y="0">s</tspan></text>
      <text class="cls-2" transform="translate(104.62 148.27) rotate(161.72) scale(.96 1)"><tspan x="0" y="0">t</tspan></text>
      <text class="cls-2" transform="translate(101.56 149.33) rotate(165.3) scale(.96 1)"><tspan x="0" y="0">u</tspan></text>
      <text class="cls-2" transform="translate(96.22 150.69) rotate(168.88) scale(.96 1)"><tspan x="0" y="0">r</tspan></text>
      <text class="cls-2" transform="translate(93.14 151.33) rotate(172.17) scale(.96 1)"><tspan x="0" y="0">e</tspan></text>
      <text class="cls-2" transform="translate(88.19 152) rotate(175.78) scale(.96 1)"><tspan x="0" y="0">s</tspan></text>
      <text class="cls-2" transform="translate(84.25 152.27) rotate(178.21) scale(.96 1)"><tspan x="0" y="0"> </tspan></text>
      <text class="cls-2" transform="translate(82.21 152.4) rotate(-178.37) scale(.96 1)"><tspan x="0" y="0">H</tspan></text>
      <text class="cls-2" transform="translate(75.69 152.19) rotate(-173.73) scale(.96 1)"><tspan x="0" y="0">e</tspan></text>
      <text class="cls-2" transform="translate(70.76 151.65) rotate(-169.76) scale(.96 1)"><tspan x="0" y="0">a</tspan></text>
      <text class="cls-2" transform="translate(66.02 150.77) rotate(-166.46) scale(.96 1)"><tspan x="0" y="0">r</tspan></text>
      <text class="cls-2" transform="translate(62.63 149.96) rotate(-163.59) scale(.96 1)"><tspan x="0" y="0">t</tspan></text>
      <text class="cls-2" transform="translate(59.46 149.01) rotate(-161.37) scale(.96 1)"><tspan x="0" y="0"> </tspan></text>
      <text class="cls-2" transform="translate(57.47 148.34) rotate(-159.54) scale(.96 1)"><tspan x="0" y="0">I</tspan></text>
      <text class="cls-2" transform="translate(55.17 147.53) rotate(-156.22) scale(.96 1)"><tspan x="0" y="0">n</tspan></text>
      <text class="cls-2" transform="translate(50.09 145.25) rotate(-153.1) scale(.96 1)"><tspan x="0" y="0"> </tspan></text>
      <text class="cls-2" transform="translate(48.24 144.38) rotate(-149.62) scale(.96 1)"><tspan x="0" y="0">G</tspan></text>
      <text class="cls-2" transform="translate(42.65 141.08) rotate(-144.95) scale(.96 1)"><tspan x="0" y="0">e</tspan></text>
      <text class="cls-2" transform="translate(38.58 138.21) rotate(-141.34) scale(.96 1)"><tspan x="0" y="0">s</tspan></text>
      <text class="cls-2" transform="translate(35.5 135.74) rotate(-138.42) scale(.96 1)"><tspan x="0" y="0">t</tspan></text>
      <text class="cls-2" transform="translate(33.04 133.6) rotate(-134.87) scale(.96 1)"><tspan x="0" y="0">u</tspan></text>
      <text class="cls-2" transform="translate(29.16 129.66) rotate(-131.33) scale(.96 1)"><tspan x="0" y="0">r</tspan></text>
      <text class="cls-2" transform="translate(27.07 127.33) rotate(-128.08) scale(.96 1)"><tspan x="0" y="0">e</tspan></text>
      <text class="cls-2" transform="translate(24.01 123.41) rotate(-124.47) scale(.96 1)"><tspan x="0" y="0">s</tspan></text>
      <text class="cls-2" transform="translate(21.79 120.13) rotate(-122.02) scale(.96 1)"><tspan x="0" y="0"> </tspan></text>
      <text class="cls-2" transform="translate(20.63 118.42) rotate(-118.51) scale(.96 1)"><tspan x="0" y="0">H</tspan></text>
      <text class="cls-2" transform="translate(17.56 112.72) rotate(-113.85) scale(.96 1)"><tspan x="0" y="0">e</tspan></text>
      <text class="cls-2" transform="translate(15.55 108.16) rotate(-109.85) scale(.96 1)"><tspan x="0" y="0">a</tspan></text>
      <text class="cls-2" transform="translate(13.93 103.63) rotate(-106.54) scale(.96 1)"><tspan x="0" y="0">r</tspan></text>
      <text class="cls-2" transform="translate(12.94 100.29) rotate(-103.67) scale(.96 1)"><tspan x="0" y="0">t</tspan></text>
      <text class="cls-2" transform="translate(12.17 97.06) rotate(-101.45) scale(.96 1)"><tspan x="0" y="0"> </tspan></text>
      <text class="cls-2" transform="translate(11.75 94.99) rotate(-99.61) scale(.96 1)"><tspan x="0" y="0">I</tspan></text>
      <text class="cls-2" transform="translate(11.3 92.6) rotate(-96.32) scale(.96 1)"><tspan x="0" y="0">n</tspan></text>
      <text class="cls-2" transform="translate(10.73 87.08) rotate(-93.24) scale(.96 1)"><tspan x="0" y="0"> </tspan></text>
      <text class="cls-2" transform="translate(10.5 85.05) rotate(-89.07) scale(.96 1)"><tspan x="0" y="0">G</tspan></text>
      <text class="cls-2" transform="translate(10.59 78.53) rotate(-85.2) scale(.96 1)"><tspan x="0" y="0">e</tspan></text>
      <text class="cls-2" transform="translate(11.02 73.56) rotate(-81.58) scale(.96 1)"><tspan x="0" y="0">s</tspan></text>
      <text class="cls-2" transform="translate(11.6 69.67) rotate(-78.64) scale(.96 1)"><tspan x="0" y="0">t</tspan></text>
      <text class="cls-2" transform="translate(12.21 66.45) rotate(-75.04) scale(.96 1)"><tspan x="0" y="0">u</tspan></text>
      <text class="cls-2" transform="translate(13.66 61.14) rotate(-71.46) scale(.96 1)"><tspan x="0" y="0">r</tspan></text>
      <text class="cls-2" transform="translate(14.63 58.17) rotate(-68.17) scale(.96 1)"><tspan x="0" y="0">e</tspan></text>
      <text class="cls-2" transform="translate(16.49 53.55) rotate(-64.53) scale(.96 1)"><tspan x="0" y="0">s</tspan></text>
      <text class="cls-2" transform="translate(18.21 49.97) rotate(-62.05) scale(.96 1)"><tspan x="0" y="0"> </tspan></text>
      <text class="cls-2" transform="translate(19.2 48.12) rotate(-60.34) scale(.96 1)"><tspan x="0" y="0"> </tspan></text>
      <path class="cls-5" d="m143.42,80.65c0,36.94-28.71,66.88-64.14,66.88S15.15,117.59,15.15,80.65,43.86,13.77,79.29,13.77s64.14,29.94,64.14,66.88Z"/>
      <path class="cls-6" d="m119.2,81.96c0,22.99-17.87,41.62-39.91,41.62s-39.91-18.64-39.91-41.62,17.87-41.62,39.91-41.62,39.91,18.64,39.91,41.62Z"/>
      <path class="cls-4" d="m25.97,88.91s13.2-10.7,13.02-10.17,14.23-11.81,14.23-11.81l6.15-3.44,8.45-6.19s3.09-3.39,5.67.68l5.75,5.43s.63,11.44-3.11,8.94c0,0-2.93-1.78-3.03-5.34l-2.36-1.66s-.77,1.49-3.28,3.18c0,0-.99,3.43-4.13,5.13l-.21,9.02s-.1,3.92,10.19,9.45c0,0,8.95,5.03,4.41,13.2,0,0-3.99-2.19-5.22-5.14l-2.69-1.62-6.05-1.16-5.01-.91-5.64-.34s-6.57,1.89-9.78.88l-3.25,1.65"/>
      <path class="cls-4" d="m130.96,90.41s-12.67-11.32-12.52-10.79-13.65-12.48-13.65-12.48l-5.98-3.73-8.14-6.59s-2.93-3.54-5.69.41l-6.01,5.15s-1.18,11.4,2.67,9.08c0,0,3.02-1.63,3.28-5.18l2.43-1.54s.7,1.52,3.13,3.34c0,0,.83,3.47,3.88,5.32l-.22,9.02s-.09,3.92-10.64,8.95c0,0-9.18,4.59-5.04,12.97,0,0,4.09-2,5.46-4.88l2.77-1.49,6.1-.87,5.05-.67,5.65-.07s6.47,2.21,9.72,1.35l3.17,1.81"/>
    </g>
  </g>
</svg>