<?xml version="1.0" encoding="UTF-8"?>
<svg id="_Шар_2" data-name="Шар 2" xmlns="http://www.w3.org/2000/svg" viewBox="0 0 550 504">
  <defs>
    <style>
      .cls-1 {
        fill: #fff7f5;
      }

      .cls-2 {
        fill: #e9e398;
      }

      .cls-3 {
        fill: #fff;
        stroke: #000;
      }

      .cls-4 {
        fill: #d3cb6c;
      }
    </style>
  </defs>
  <g id="_Шар_1-2" data-name="Шар 1">
    <rect class="cls-1" width="550" height="504"/>
    <path class="cls-3" d="m252.12,223.59c9.52-2.02,17.28-12.51,22.01-28.18,4.72-15.63,6.36-36.21,3.78-58.05-2.58-21.83-8.88-40.73-16.97-53.63-8.11-12.94-17.91-19.69-27.42-17.67-9.52,2.02-17.27,12.51-22.01,28.18-4.72,15.63-6.36,36.21-3.78,58.04,2.58,21.83,8.88,40.73,16.97,53.63,8.11,12.94,17.91,19.69,27.42,17.67Z"/>
    <ellipse class="cls-4" cx="271.62" cy="250.91" rx="51.83" ry="60.86"/>
    <ellipse class="cls-2" cx="271.94" cy="250.91" rx="36.25" ry="42.42"/>
    <path class="cls-4" d="m252.07,257.35l-1.12-1.64c.37.57.75,1.11,1.12,1.64l.37.54c5.2,11,19.41,26.54,34.66.72l.74-2.9c-5.56,9.8-20.33,23.42-35.77,1.64Z"/>
    <ellipse class="cls-4" cx="259.22" cy="238.37" rx="5.09" ry="6.27"/>
    <ellipse class="cls-4" cx="281.48" cy="238.37" rx="5.09" ry="6.27"/>
  </g>
</svg>