<?xml version="1.0" encoding="UTF-8"?>
<svg id="_Шар_2" data-name="Шар 2" xmlns="http://www.w3.org/2000/svg" viewBox="0 0 550 504">
  <defs>
    <style>
      .cls-1 {
        fill: #fff7f5;
      }

      .cls-2 {
        fill: #e9e398;
      }

      .cls-3 {
        fill: #fff;
        stroke: #000;
      }

      .cls-4 {
        fill: #d3cb6c;
      }
    </style>
  </defs>
  <g id="_Шар_1-2" data-name="Шар 1">
    <rect class="cls-1" width="550" height="504"/>
    <path class="cls-3" d="m277.13,217.79c9.4,5.55,21.39,2.74,33.25-6.58,11.84-9.3,23.42-25,31.92-44.92,8.5-19.91,12.29-40.22,11.55-56.94-.73-16.75-5.98-29.73-15.38-35.28-9.4-5.55-21.39-2.74-33.25,6.58-11.84,9.3-23.42,25-31.92,44.92s-12.29,40.22-11.55,56.94c.73,16.75,5.98,29.73,15.38,35.28Z"/>
    <path class="cls-3" d="m295.9,273.43c4.99-10.71,16.33-16.23,30.77-16.37,14.43-.14,31.86,5.09,48.87,15.75,17.01,10.67,30.32,24.73,38.12,38.81,7.8,14.1,10.02,28.12,5.03,38.83-4.99,10.71-16.33,16.23-30.77,16.37-14.43.14-31.86-5.09-48.87-15.76-17-10.67-30.32-24.73-38.11-38.81-7.8-14.09-10.02-28.12-5.03-38.83Z"/>
    <path class="cls-3" d="m278.8,270.77c9.7-4.92,21.51-1.32,32.81,8.76,11.28,10.06,21.95,26.5,29.29,46.93,7.34,20.43,9.96,40.95,8.27,57.59-1.69,16.67-7.67,29.28-17.37,34.2s-21.51,1.32-32.81-8.76c-11.28-10.06-21.94-26.5-29.29-46.94-7.34-20.43-9.96-40.95-8.27-57.59,1.69-16.67,7.67-29.29,17.37-34.2Z"/>
    <path class="cls-3" d="m259.6,274.97c4.64,9.69,2.18,22.89-5.77,36.49-7.94,13.59-21.3,27.45-38.21,38.36-16.9,10.9-34.11,16.74-48.25,17.4-14.16.66-25.12-3.88-29.77-13.57-4.64-9.69-2.18-22.89,5.77-36.49,7.94-13.59,21.3-27.45,38.21-38.36,16.9-10.9,34.11-16.74,48.25-17.4,14.16-.66,25.12,3.88,29.77,13.57Z"/>
    <path class="cls-3" d="m267.82,270.77c9,3.9,14.79,15.76,16.7,32.11,1.9,16.3-.08,36.85-6.43,57.77-6.35,20.93-15.84,38.22-26.04,49.27-10.23,11.08-21.03,15.74-30.03,11.84-9-3.9-14.79-15.76-16.7-32.11-1.9-16.3.08-36.85,6.43-57.77,6.35-20.93,15.84-38.22,26.04-49.27,10.23-11.08,21.03-15.74,30.03-11.84Z"/>
    <path class="cls-3" d="m109.76,230.05c-.03,12.2,7.66,23.34,20.26,31.48,12.6,8.13,30.06,13.22,49.38,13.29,19.32.07,36.81-4.88,49.46-12.91,12.65-8.04,20.41-19.12,20.44-31.32s-7.65-23.34-20.26-31.48c-12.6-8.13-30.06-13.22-49.38-13.29-19.32-.07-36.81,4.88-49.46,12.91-12.65,8.04-20.41,19.12-20.44,31.32Z"/>
    <path class="cls-3" d="m306.5,231.37c-.03,12.2,7.66,23.34,20.26,31.48,12.6,8.13,30.06,13.22,49.38,13.29,19.32.07,36.81-4.88,49.46-12.91,12.65-8.04,20.41-19.12,20.44-31.32.03-12.2-7.65-23.34-20.26-31.48-12.6-8.13-30.06-13.22-49.38-13.29-19.32-.07-36.81,4.88-49.46,12.91-12.65,8.04-20.41,19.12-20.44,31.32Z"/>
    <path class="cls-3" d="m297.14,210.68c7.52,9.6,20.46,13.6,35.4,12.18,14.93-1.41,31.79-8.22,47.01-20.12,15.23-11.9,25.9-26.61,30.86-40.75,4.96-14.15,4.2-27.65-3.33-37.25-7.52-9.6-20.46-13.6-35.4-12.18-14.93,1.41-31.79,8.22-47.01,20.12-15.23,11.9-25.9,26.61-30.86,40.75-4.96,14.15-4.2,27.65,3.33,37.25Z"/>
    <path class="cls-3" d="m257.05,215.76c4.64-9.69,2.18-22.89-5.77-36.49-7.94-13.59-21.3-27.45-38.21-38.36-16.9-10.9-34.11-16.74-48.25-17.4-14.16-.66-25.12,3.88-29.77,13.57-4.64,9.69-2.18,22.89,5.77,36.49,7.94,13.59,21.3,27.45,38.21,38.36,16.9,10.9,34.11,16.74,48.25,17.4,14.16.66,25.12-3.88,29.77-13.57Z"/>
    <path class="cls-3" d="m252.12,223.59c9.52-2.02,17.28-12.51,22.01-28.18,4.72-15.63,6.36-36.21,3.78-58.05-2.58-21.83-8.88-40.73-16.97-53.63-8.11-12.94-17.91-19.69-27.42-17.67-9.52,2.02-17.27,12.51-22.01,28.18-4.72,15.63-6.36,36.21-3.78,58.04,2.58,21.83,8.88,40.73,16.97,53.63,8.11,12.94,17.91,19.69,27.42,17.67Z"/>
    <ellipse class="cls-4" cx="271.62" cy="250.91" rx="51.83" ry="60.86"/>
    <ellipse class="cls-2" cx="271.94" cy="250.91" rx="36.25" ry="42.42"/>
    <path class="cls-4" d="m252.07,257.35l-1.12-1.64c.37.57.74,1.11,1.12,1.64l.37.54c5.2,11,19.41,26.54,34.66.72l.74-2.9c-5.56,9.8-20.32,23.42-35.77,1.64Z"/>
    <ellipse class="cls-4" cx="259.22" cy="238.37" rx="5.09" ry="6.27"/>
    <ellipse class="cls-4" cx="281.48" cy="238.37" rx="5.09" ry="6.27"/>
  </g>
</svg>