<?xml version="1.0" encoding="UTF-8"?>
<svg id="_Шар_2" data-name="Шар 2" xmlns="http://www.w3.org/2000/svg" viewBox="0 0 355.83 358.41">
  <defs>
    <style>
      .cls-1 {
        fill: #e9e398;
      }

      .cls-2 {
        fill: #fff;
        stroke: #000;
      }

      .cls-3 {
        fill: #d3cb6c;
      }
    </style>
  </defs>
  <g id="_Шар_1-2" data-name="Шар 1">
    <path class="cls-2" d="m200.97,208.21c4.99-10.71,16.33-16.23,30.77-16.37,14.43-.14,31.86,5.09,48.87,15.76,17.01,10.67,30.32,24.73,38.12,38.81,7.8,14.09,10.02,28.12,5.03,38.83-4.99,10.71-16.33,16.23-30.77,16.37-14.43.14-31.86-5.09-48.87-15.76-17.01-10.67-30.32-24.73-38.12-38.81-7.8-14.1-10.02-28.12-5.03-38.83Z"/>
    <path class="cls-2" d="m183.86,205.56c9.7-4.92,21.51-1.32,32.81,8.76,11.28,10.06,21.95,26.5,29.29,46.93,7.34,20.43,9.96,40.95,8.27,57.59-1.69,16.67-7.67,29.28-17.37,34.2-9.7,4.92-21.51,1.32-32.81-8.76-11.28-10.06-21.95-26.5-29.29-46.94-7.34-20.43-9.96-40.95-8.27-57.59,1.69-16.67,7.67-29.28,17.37-34.2Z"/>
    <path class="cls-2" d="m164.66,209.76c4.64,9.69,2.18,22.89-5.78,36.49-7.94,13.59-21.3,27.45-38.21,38.35-16.9,10.9-34.11,16.74-48.25,17.4-14.16.66-25.12-3.88-29.77-13.57-4.64-9.69-2.18-22.89,5.78-36.49,7.94-13.58,21.3-27.45,38.21-38.36,16.9-10.9,34.11-16.74,48.25-17.4,14.16-.66,25.12,3.88,29.77,13.57Z"/>
    <path class="cls-2" d="m172.88,205.56c9,3.9,14.79,15.76,16.7,32.11,1.9,16.3-.08,36.85-6.43,57.77-6.35,20.93-15.84,38.22-26.04,49.27-10.23,11.08-21.03,15.74-30.03,11.84-9-3.9-14.79-15.76-16.7-32.11-1.9-16.3.08-36.85,6.43-57.77,6.35-20.93,15.84-38.22,26.04-49.26,10.23-11.08,21.03-15.74,30.03-11.84Z"/>
    <path class="cls-2" d="m1.34,203.94c2.93,11.84,13.09,20.79,27.3,25.62,14.2,4.83,32.37,5.53,51.13.91,18.76-4.62,34.53-13.66,44.85-24.53,10.32-10.87,15.16-23.5,12.23-35.34-2.93-11.84-13.09-20.79-27.29-25.62-14.2-4.83-32.37-5.53-51.13-.91-18.76,4.62-34.53,13.66-44.85,24.53-10.32,10.87-15.16,23.5-12.23,35.35Z"/>
    <path class="cls-2" d="m220.51,164.02c-3.52,11.68.67,24.55,10.43,35.95,9.75,11.39,25.03,21.25,43.53,26.84,18.5,5.59,36.67,5.84,51.08,1.75,14.42-4.09,25.02-12.5,28.53-24.18,3.52-11.68-.67-24.55-10.43-35.95-9.76-11.39-25.03-21.25-43.53-26.84-18.5-5.59-36.67-5.84-51.09-1.75-14.42,4.09-25.02,12.5-28.53,24.18Z"/>
    <path class="cls-2" d="m198.42,152.09c4.99,10.71,16.33,16.23,30.77,16.37,14.43.14,31.86-5.09,48.87-15.75,17.01-10.67,30.32-24.73,38.12-38.81,7.8-14.09,10.02-28.12,5.03-38.83-4.99-10.71-16.33-16.23-30.77-16.37-14.43-.14-31.86,5.09-48.87,15.75-17.01,10.67-30.32,24.73-38.12,38.81-7.8,14.1-10.02,28.12-5.03,38.83Z"/>
    <path class="cls-2" d="m184.84,157.58c9.4,5.55,21.39,2.74,33.25-6.58,11.84-9.3,23.42-25,31.92-44.92,8.5-19.91,12.29-40.22,11.55-56.94-.73-16.75-5.98-29.73-15.38-35.28-9.4-5.55-21.39-2.74-33.25,6.58-11.84,9.3-23.42,25-31.92,44.92-8.5,19.91-12.28,40.22-11.55,56.94.73,16.75,5.98,29.74,15.38,35.28Z"/>
    <path class="cls-2" d="m162.12,150.54c4.64-9.69,2.18-22.89-5.77-36.49-7.94-13.58-21.3-27.45-38.21-38.36-16.9-10.9-34.11-16.74-48.25-17.4-14.16-.66-25.12,3.88-29.77,13.57-4.64,9.69-2.18,22.89,5.78,36.49,7.94,13.59,21.3,27.45,38.21,38.36,16.9,10.9,34.11,16.74,48.25,17.4,14.16.66,25.12-3.88,29.77-13.57Z"/>
    <path class="cls-2" d="m157.18,158.38c9.52-2.02,17.28-12.51,22.01-28.18,4.72-15.63,6.36-36.21,3.78-58.05-2.58-21.83-8.88-40.73-16.97-53.63-8.11-12.94-17.91-19.69-27.42-17.67-9.52,2.02-17.27,12.51-22.01,28.18-4.72,15.63-6.36,36.21-3.78,58.04,2.58,21.83,8.88,40.73,16.97,53.63,8.11,12.94,17.91,19.69,27.42,17.67Z"/>
    <ellipse class="cls-3" cx="176.68" cy="185.7" rx="51.83" ry="60.86"/>
    <ellipse class="cls-1" cx="177" cy="185.7" rx="36.25" ry="42.42"/>
    <path class="cls-3" d="m157.13,192.14l-1.12-1.64c.37.57.75,1.11,1.12,1.64l.37.54c5.2,11,19.41,26.54,34.66.73l.74-2.9c-5.56,9.8-20.32,23.42-35.77,1.64Z"/>
    <ellipse class="cls-3" cx="164.28" cy="173.16" rx="5.09" ry="6.27"/>
    <ellipse class="cls-3" cx="186.54" cy="173.16" rx="5.09" ry="6.27"/>
  </g>
</svg>