<?xml version="1.0" encoding="UTF-8"?>
<svg id="_Шар_2" data-name="Шар 2" xmlns="http://www.w3.org/2000/svg" viewBox="0 0 220.37 251.86">
  <defs>
    <style>
      .cls-1 {
        fill: #e9e398;
      }

      .cls-2 {
        fill: #fff;
        stroke: #000;
      }

      .cls-3 {
        fill: #d3cb6c;
      }
    </style>
  </defs>
  <g id="_Шар_1-2" data-name="Шар 1">
    <path class="cls-2" d="m1.19,222.18c-2.65-11.86,2.43-24.6,12.95-35.64,10.52-11.03,26.41-20.29,45.2-25.14,18.79-4.85,36.87-4.35,50.9.34,14.04,4.7,23.97,13.57,26.62,25.42,2.65,11.86-2.43,24.6-12.95,35.64-10.51,11.03-26.41,20.29-45.2,25.14-18.79,4.85-36.87,4.35-50.9-.34-14.04-4.7-23.97-13.57-26.62-25.42Z"/>
    <path class="cls-2" d="m6.68,164.84c-.03,12.2,7.66,23.34,20.26,31.48,12.6,8.13,30.06,13.22,49.38,13.29,19.32.07,36.81-4.88,49.46-12.91,12.65-8.04,20.41-19.12,20.44-31.32s-7.65-23.34-20.26-31.48c-12.6-8.13-30.06-13.22-49.38-13.29-19.32-.07-36.81,4.88-49.46,12.91-12.65,8.04-20.41,19.12-20.44,31.32Z"/>
    <path class="cls-2" d="m153.97,150.54c4.64-9.69,2.18-22.89-5.77-36.49-7.94-13.59-21.3-27.45-38.21-38.36-16.9-10.9-34.11-16.74-48.25-17.4-14.16-.66-25.12,3.88-29.77,13.57-4.64,9.69-2.18,22.89,5.78,36.49,7.94,13.59,21.3,27.45,38.21,38.36,16.9,10.9,34.11,16.74,48.25,17.4,14.16.66,25.12-3.88,29.77-13.57Z"/>
    <path class="cls-2" d="m149.03,158.38c9.52-2.02,17.28-12.51,22.01-28.18,4.72-15.63,6.36-36.21,3.78-58.05-2.58-21.83-8.88-40.73-16.97-53.63-8.11-12.94-17.91-19.69-27.42-17.67-9.52,2.02-17.27,12.51-22.01,28.18-4.72,15.63-6.36,36.21-3.78,58.04,2.58,21.83,8.88,40.73,16.97,53.63,8.11,12.94,17.91,19.69,27.42,17.67Z"/>
    <ellipse class="cls-3" cx="168.54" cy="185.7" rx="51.83" ry="60.86"/>
    <ellipse class="cls-1" cx="168.85" cy="185.7" rx="36.25" ry="42.42"/>
    <path class="cls-3" d="m148.99,192.14l-1.12-1.64c.37.57.75,1.11,1.12,1.64l.37.54c5.2,11,19.41,26.54,34.66.73l.74-2.9c-5.56,9.8-20.32,23.42-35.77,1.64Z"/>
    <ellipse class="cls-3" cx="156.14" cy="173.16" rx="5.09" ry="6.27"/>
    <ellipse class="cls-3" cx="178.39" cy="173.16" rx="5.09" ry="6.27"/>
  </g>
</svg>