<?xml version="1.0" encoding="UTF-8"?>
<svg id="_Шар_2" data-name="Шар 2" xmlns="http://www.w3.org/2000/svg" viewBox="0 0 550 504">
  <defs>
    <style>
      .cls-1 {
        fill: #fff7f5;
      }

      .cls-2 {
        fill: #e9e398;
      }

      .cls-3 {
        fill: #fff;
        stroke: #000;
      }

      .cls-4 {
        fill: #d3cb6c;
      }
    </style>
  </defs>
  <g id="_Шар_1-2" data-name="Шар 1">
    <rect class="cls-1" width="550" height="504"/>
    <path class="cls-3" d="m278.8,270.77c9.7-4.92,21.51-1.32,32.81,8.76,11.28,10.06,21.95,26.5,29.29,46.93,7.34,20.43,9.96,40.95,8.27,57.59-1.69,16.67-7.67,29.28-17.37,34.2s-21.51,1.32-32.81-8.76c-11.28-10.06-21.94-26.5-29.29-46.94-7.34-20.43-9.96-40.95-8.27-57.59,1.69-16.67,7.67-29.29,17.37-34.2Z"/>
    <path class="cls-3" d="m259.6,274.97c4.64,9.69,2.18,22.89-5.78,36.49-7.94,13.59-21.3,27.45-38.21,38.36-16.9,10.9-34.11,16.74-48.25,17.4-14.16.66-25.12-3.88-29.77-13.57-4.64-9.69-2.18-22.89,5.78-36.49,7.94-13.59,21.3-27.45,38.21-38.36,16.9-10.9,34.11-16.74,48.25-17.4,14.16-.66,25.12,3.88,29.77,13.57Z"/>
    <path class="cls-3" d="m267.82,270.77c9,3.9,14.79,15.76,16.7,32.11,1.9,16.3-.08,36.85-6.43,57.77-6.35,20.93-15.84,38.22-26.04,49.27-10.23,11.08-21.03,15.74-30.03,11.84-9-3.9-14.79-15.76-16.7-32.11-1.9-16.3.08-36.85,6.43-57.77,6.35-20.93,15.84-38.22,26.04-49.27,10.23-11.08,21.03-15.74,30.03-11.84Z"/>
    <path class="cls-3" d="m109.76,230.05c-.04,12.2,7.66,23.34,20.26,31.48,12.6,8.13,30.06,13.22,49.38,13.29,19.32.07,36.81-4.88,49.46-12.91,12.65-8.04,20.41-19.12,20.44-31.32s-7.65-23.34-20.26-31.48c-12.6-8.13-30.06-13.22-49.38-13.29-19.32-.07-36.81,4.88-49.46,12.91-12.65,8.04-20.41,19.12-20.44,31.32Z"/>
    <path class="cls-3" d="m257.05,215.76c4.64-9.69,2.18-22.89-5.77-36.49-7.94-13.59-21.3-27.45-38.21-38.36-16.9-10.9-34.11-16.74-48.25-17.4-14.16-.66-25.12,3.88-29.77,13.57-4.64,9.69-2.18,22.89,5.77,36.49,7.94,13.59,21.3,27.45,38.21,38.36,16.9,10.9,34.11,16.74,48.25,17.4,14.16.66,25.12-3.88,29.77-13.57Z"/>
    <path class="cls-3" d="m252.12,223.59c9.52-2.02,17.28-12.51,22.01-28.18,4.72-15.63,6.36-36.21,3.78-58.05-2.58-21.83-8.88-40.73-16.97-53.63-8.11-12.94-17.91-19.69-27.42-17.67-9.52,2.02-17.27,12.51-22.01,28.18-4.72,15.63-6.36,36.21-3.78,58.04,2.58,21.83,8.88,40.73,16.97,53.63,8.11,12.94,17.91,19.69,27.42,17.67Z"/>
    <ellipse class="cls-4" cx="271.62" cy="250.91" rx="51.83" ry="60.86"/>
    <ellipse class="cls-2" cx="271.94" cy="250.91" rx="36.25" ry="42.42"/>
    <path class="cls-4" d="m252.07,257.35l-1.12-1.64c.37.57.75,1.11,1.12,1.64l.37.54c5.2,11,19.41,26.54,34.66.72l.74-2.9c-5.56,9.8-20.33,23.42-35.77,1.64Z"/>
    <ellipse class="cls-4" cx="259.22" cy="238.37" rx="5.09" ry="6.27"/>
    <ellipse class="cls-4" cx="281.48" cy="238.37" rx="5.09" ry="6.27"/>
  </g>
</svg>