<?xml version="1.0" encoding="UTF-8"?>
<svg id="_Шар_2" data-name="Шар 2" xmlns="http://www.w3.org/2000/svg" viewBox="0 0 885 383.55">
  <defs>
    <style>
      .cls-1 {
        fill: #286c5d;
      }

      .cls-2 {
        fill: #fff;
      }

      .cls-3 {
        fill: #41b284;
      }
    </style>
  </defs>
  <g id="_Шар_1-2" data-name="Шар 1">
    <rect class="cls-3" y="160.55" width="885" height="63" rx="16" ry="16"/>
    <rect class="cls-3" y="240.55" width="885" height="63" rx="16" ry="16"/>
    <rect class="cls-3" y="320.55" width="885" height="63" rx="16" ry="16"/>
    <path class="cls-2" d="m408.51,198.55v-1.62h.43c.61,0,1.08-.19,1.41-.58.34-.39.58-1.01.72-1.88.15-.87.25-2.01.31-3.44l.25-7.02h8.86v14.54h-1.76v-12.98h-5.43l-.23,5.79c-.06,1.53-.2,2.82-.42,3.89-.22,1.07-.61,1.89-1.17,2.45-.56.56-1.37.85-2.44.85h-.54Zm19.86.23c-1.05,0-1.96-.23-2.72-.7-.76-.47-1.34-1.12-1.76-1.96-.41-.84-.61-1.82-.61-2.94s.2-2.1.61-2.96c.41-.86.99-1.52,1.72-2,.74-.48,1.6-.72,2.59-.72.57,0,1.13.1,1.68.28.55.19,1.06.5,1.51.92.46.42.82.98,1.09,1.68s.4,1.55.4,2.57v.71h-8.41v-1.45h6.7c0-.62-.12-1.16-.37-1.65-.24-.48-.59-.86-1.04-1.14-.45-.28-.97-.42-1.58-.42-.67,0-1.24.16-1.73.5-.48.33-.85.75-1.12,1.28-.26.53-.39,1.09-.39,1.69v.97c0,.82.14,1.52.43,2.1.29.57.69,1,1.2,1.3.51.29,1.11.44,1.78.44.44,0,.84-.06,1.19-.18.36-.13.67-.32.93-.57.26-.26.46-.57.6-.95l1.62.46c-.17.55-.46,1.03-.86,1.45-.4.41-.9.73-1.49.97-.59.23-1.26.34-2,.34Zm13.8-11.14v1.56h-5.06v9.35h-1.68v-10.91h6.73Zm2.45,10.91v-10.91h1.68v4.74h1.11l3.92-4.74h2.16l-4.4,5.26,4.46,5.65h-2.16l-3.58-4.6h-1.51v4.6h-1.68Zm12.42-2.47l5.26-8.44h1.93v10.91h-1.68v-8.44l-5.23,8.44h-1.96v-10.91h1.68v8.44Zm11.93,0l5.26-8.44h1.93v10.91h-1.68v-8.44l-5.23,8.44h-1.96v-10.91h1.68v8.44Zm4.15-12.07h1.56c0,.77-.27,1.39-.8,1.88-.53.49-1.25.73-2.16.73s-1.61-.24-2.14-.73c-.53-.49-.79-1.12-.79-1.88h1.56c0,.37.1.69.31.97.21.28.56.42,1.06.42s.85-.14,1.07-.42c.22-.28.33-.6.33-.97Z"/>
    <path class="cls-2" d="m413.47,268.55h-1.76c-.1-.51-.29-.95-.55-1.33-.26-.38-.57-.71-.94-.97-.36-.27-.77-.46-1.21-.6-.45-.13-.91-.2-1.39-.2-.88,0-1.68.22-2.39.67-.71.44-1.28,1.1-1.7,1.97-.42.87-.62,1.93-.62,3.19s.21,2.32.62,3.19c.42.87.99,1.52,1.7,1.97.71.45,1.51.67,2.39.67.48,0,.95-.07,1.39-.2.44-.13.85-.33,1.21-.59.37-.27.68-.59.94-.97.26-.39.44-.83.55-1.34h1.76c-.13.74-.37,1.41-.73,2-.35.59-.79,1.09-1.31,1.5-.52.41-1.11.72-1.76.93-.64.21-1.33.32-2.07.32-1.24,0-2.34-.3-3.31-.91-.97-.61-1.73-1.47-2.28-2.59-.55-1.12-.83-2.44-.83-3.98s.28-2.86.83-3.98c.55-1.12,1.31-1.98,2.28-2.58.97-.61,2.07-.91,3.31-.91.73,0,1.42.11,2.07.32.65.21,1.23.53,1.76.94.52.41.96.9,1.31,1.49.35.58.59,1.25.73,2Zm7.19,10.23c-1.05,0-1.96-.23-2.72-.7-.76-.47-1.34-1.12-1.76-1.96-.41-.84-.61-1.82-.61-2.94s.2-2.1.61-2.96c.41-.86.99-1.52,1.72-2,.74-.48,1.6-.72,2.58-.72.57,0,1.13.1,1.68.28.55.19,1.06.5,1.51.92.46.42.82.98,1.09,1.68s.4,1.55.4,2.57v.71h-8.41v-1.45h6.7c0-.62-.12-1.17-.37-1.65-.24-.48-.59-.86-1.04-1.14-.45-.28-.97-.42-1.58-.42-.67,0-1.24.17-1.73.5-.48.33-.85.75-1.11,1.28-.26.53-.39,1.09-.39,1.69v.97c0,.82.14,1.52.43,2.1.29.57.69,1,1.2,1.3.51.29,1.11.44,1.78.44.44,0,.84-.06,1.19-.18.36-.13.67-.32.93-.57.26-.26.46-.57.6-.95l1.62.45c-.17.55-.46,1.03-.86,1.45-.4.41-.9.73-1.49.97-.59.23-1.26.34-1.99.34Zm7.07,3.86v-15h1.62v1.73h.2c.12-.19.29-.43.51-.73.22-.3.54-.56.95-.8.42-.24.98-.35,1.69-.35.92,0,1.73.23,2.43.69.7.46,1.25,1.11,1.64,1.95.39.84.59,1.84.59,2.98s-.2,2.16-.59,3c-.39.84-.94,1.5-1.63,1.96-.7.46-1.5.69-2.41.69-.7,0-1.26-.12-1.68-.35-.42-.24-.74-.5-.97-.8-.23-.3-.4-.55-.52-.75h-.14v5.77h-1.68Zm1.65-9.55c0,.82.12,1.55.36,2.18.24.62.6,1.11,1.06,1.47.46.35,1.03.53,1.7.53s1.29-.18,1.75-.55c.47-.37.83-.88,1.07-1.51.24-.63.36-1.34.36-2.12s-.12-1.46-.35-2.07c-.23-.62-.59-1.11-1.06-1.47-.47-.36-1.06-.55-1.77-.55s-1.25.17-1.72.52c-.46.34-.81.82-1.05,1.43-.24.61-.36,1.32-.36,2.14Zm15.11,5.68c-1.05,0-1.96-.23-2.72-.7-.76-.47-1.34-1.12-1.76-1.96-.41-.84-.61-1.82-.61-2.94s.2-2.1.61-2.96c.41-.86.99-1.52,1.72-2,.74-.48,1.6-.72,2.59-.72.57,0,1.13.1,1.68.28s1.06.5,1.51.92c.46.42.82.98,1.09,1.68s.4,1.55.4,2.57v.71h-8.41v-1.45h6.7c0-.62-.12-1.17-.37-1.65-.24-.48-.59-.86-1.04-1.14-.45-.28-.97-.42-1.58-.42-.67,0-1.24.17-1.73.5-.48.33-.85.75-1.12,1.28-.26.53-.39,1.09-.39,1.69v.97c0,.82.14,1.52.43,2.1.29.57.69,1,1.2,1.3.51.29,1.11.44,1.78.44.44,0,.84-.06,1.19-.18.36-.13.67-.32.93-.57.26-.26.46-.57.6-.95l1.62.45c-.17.55-.46,1.03-.86,1.45-.4.41-.9.73-1.49.97-.59.23-1.26.34-2,.34Zm5.9,2.9v-4.69h.91c.22-.23.41-.48.57-.75.16-.27.3-.59.42-.96.12-.37.23-.83.31-1.36.08-.54.16-1.19.23-1.95l.37-4.32h6.93v9.35h1.68v4.69h-1.68v-3.12h-8.07v3.12h-1.68Zm2.81-4.69h5.26v-7.78h-3.69l-.28,2.76c-.12,1.14-.27,2.14-.44,2.99-.17.85-.45,1.53-.84,2.04Zm18.13-4.66v1.56h-6.02v-1.56h6.02Zm-5.62-4.69v10.91h-1.68v-10.91h1.68Zm6.9,0v10.91h-1.68v-10.91h1.68Zm3.06,10.91v-10.91h1.68v10.91h-1.68Zm.85-12.73c-.33,0-.61-.11-.85-.33-.23-.22-.35-.49-.35-.8s.12-.58.35-.8c.24-.22.52-.33.85-.33s.61.11.84.33c.24.22.36.49.36.8s-.12.58-.36.8c-.23.22-.51.33-.84.33Zm5.57,10.26l5.26-8.44h1.93v10.91h-1.68v-8.44l-5.23,8.44h-1.96v-10.91h1.68v8.44Zm4.15-12.07h1.56c0,.77-.27,1.39-.8,1.88-.53.49-1.25.73-2.16.73s-1.61-.24-2.14-.73c-.53-.49-.79-1.12-.79-1.88h1.56c0,.37.1.69.3.97.21.28.56.42,1.06.42s.85-.14,1.07-.42c.22-.28.33-.6.33-.97Z"/>
    <path class="cls-2" d="m410.47,348.55h-1.76c-.1-.51-.29-.95-.55-1.33-.26-.38-.57-.71-.94-.97-.36-.27-.77-.46-1.21-.6-.45-.13-.91-.2-1.39-.2-.88,0-1.68.22-2.39.67-.71.44-1.28,1.1-1.7,1.97-.42.87-.62,1.93-.62,3.19s.21,2.32.62,3.19c.42.87.99,1.52,1.7,1.97.71.45,1.51.67,2.39.67.48,0,.95-.07,1.39-.2.44-.13.85-.33,1.21-.59.37-.27.68-.59.94-.97.26-.39.44-.83.55-1.34h1.76c-.13.74-.37,1.41-.73,2-.35.59-.79,1.09-1.31,1.5-.52.41-1.11.72-1.76.93-.64.21-1.33.32-2.07.32-1.24,0-2.34-.3-3.31-.91-.97-.61-1.73-1.47-2.28-2.59-.55-1.12-.83-2.44-.83-3.98s.28-2.86.83-3.98c.55-1.12,1.31-1.98,2.28-2.58.97-.61,2.07-.91,3.31-.91.73,0,1.42.11,2.07.32.65.21,1.23.53,1.76.94.52.41.96.9,1.31,1.49.35.58.59,1.25.73,2Zm2.62,10v-10.91h1.68v4.74h1.11l3.92-4.74h2.16l-4.4,5.26,4.46,5.65h-2.16l-3.58-4.6h-1.51v4.6h-1.68Zm9.78,0v-1.56h.4c.33,0,.6-.06.82-.19.22-.13.39-.36.53-.69.14-.33.24-.79.31-1.38.08-.59.13-1.34.16-2.26l.2-4.83h7.27v10.91h-1.68v-9.35h-4.01l-.17,3.89c-.04.89-.12,1.68-.24,2.37-.12.68-.3,1.24-.55,1.7-.24.46-.56.81-.97,1.04-.4.23-.91.35-1.51.35h-.57Zm15.97.26c-.69,0-1.32-.13-1.88-.39-.56-.26-1.01-.65-1.34-1.14-.33-.5-.5-1.11-.5-1.82,0-.62.12-1.13.37-1.52.25-.39.58-.7.99-.92.41-.22.87-.39,1.36-.5.5-.11,1.01-.2,1.51-.27.66-.08,1.2-.15,1.61-.19.42-.05.72-.12.91-.23.19-.11.29-.3.29-.57v-.06c0-.7-.19-1.24-.57-1.63-.38-.39-.95-.58-1.73-.58s-1.43.18-1.88.53c-.46.35-.77.72-.96,1.12l-1.59-.57c.28-.66.66-1.18,1.14-1.55.48-.37,1-.63,1.56-.78.57-.15,1.13-.23,1.68-.23.35,0,.75.04,1.21.13.46.08.9.25,1.33.5.43.26.79.64,1.07,1.16.28.52.43,1.21.43,2.07v7.19h-1.68v-1.48h-.08c-.11.24-.3.49-.57.76-.27.27-.62.5-1.06.69-.44.19-.98.28-1.61.28Zm.26-1.51c.66,0,1.22-.13,1.68-.39.46-.26.81-.6,1.04-1.01.24-.41.35-.85.35-1.3v-1.53c-.07.08-.23.16-.47.23-.24.07-.51.13-.82.18-.31.05-.61.09-.9.13-.29.03-.52.06-.7.08-.43.06-.84.15-1.22.28-.37.12-.68.31-.91.56-.23.25-.34.58-.34,1.01,0,.58.21,1.02.65,1.32.44.29.99.44,1.65.44Zm6.64,4.38v-4.69h.91c.22-.23.41-.48.58-.75.16-.27.3-.59.42-.96.12-.37.23-.83.31-1.36.08-.54.16-1.19.23-1.95l.37-4.32h6.93v9.35h1.68v4.69h-1.68v-3.12h-8.07v3.12h-1.68Zm2.81-4.69h5.26v-7.78h-3.69l-.28,2.76c-.12,1.14-.27,2.14-.44,2.99-.17.85-.45,1.53-.84,2.04Zm18.13-4.66v1.56h-6.02v-1.56h6.02Zm-5.62-4.69v10.91h-1.68v-10.91h1.68Zm6.9,0v10.91h-1.68v-10.91h1.68Zm4.74,8.44l5.26-8.44h1.93v10.91h-1.68v-8.44l-5.23,8.44h-1.96v-10.91h1.68v8.44Zm11.93,0l5.26-8.44h1.93v10.91h-1.68v-8.44l-5.23,8.44h-1.96v-10.91h1.68v8.44Zm4.15-12.07h1.56c0,.77-.27,1.39-.8,1.88-.53.49-1.25.73-2.16.73s-1.61-.24-2.14-.73c-.52-.49-.79-1.12-.79-1.88h1.56c0,.37.1.69.31.97.21.28.56.42,1.06.42s.85-.14,1.07-.42c.22-.28.33-.6.33-.97Z"/>
    <path class="cls-1" d="m295.28,133.55v-26.18h10.48c1.93,0,3.53.29,4.82.86,1.29.57,2.25,1.36,2.9,2.38.65,1,.97,2.16.97,3.48,0,1.02-.2,1.92-.61,2.7-.41.77-.97,1.4-1.69,1.89-.71.49-1.52.83-2.43,1.04v.26c1,.04,1.93.32,2.8.84.88.52,1.59,1.25,2.14,2.19.55.93.82,2.04.82,3.32,0,1.39-.35,2.63-1.04,3.72-.68,1.08-1.69,1.94-3.03,2.57-1.34.63-2.99.95-4.95.95h-11.19Zm5.54-4.53h4.51c1.54,0,2.67-.29,3.38-.88.71-.6,1.06-1.39,1.06-2.38,0-.72-.18-1.36-.52-1.92-.35-.55-.85-.99-1.5-1.3-.64-.32-1.4-.47-2.29-.47h-4.64v6.95Zm0-10.7h4.1c.76,0,1.43-.13,2.02-.4.6-.27,1.07-.66,1.41-1.15.35-.49.52-1.09.52-1.78,0-.95-.34-1.71-1.01-2.29-.67-.58-1.61-.87-2.84-.87h-4.21v6.48Zm23.37,8.04l7.07-12.45h5.37v19.64h-5.19v-12.49l-7.04,12.49h-5.41v-19.64h5.2v12.45Zm33.13-19.66l1.66,3.55c-.55.46-1.17.8-1.84,1.02-.67.21-1.48.35-2.42.42-.93.07-2.06.11-3.4.14-1.52.02-2.75.26-3.71.73-.95.47-1.68,1.21-2.17,2.21-.49,1-.82,2.3-.97,3.91h.19c.59-1.2,1.42-2.13,2.48-2.79,1.07-.66,2.4-.98,3.98-.98,1.67,0,3.13.37,4.39,1.1,1.26.73,2.24,1.79,2.94,3.16.7,1.37,1.05,3.02,1.05,4.93s-.39,3.73-1.18,5.2c-.77,1.47-1.88,2.6-3.31,3.41-1.43.8-3.14,1.2-5.11,1.2s-3.7-.42-5.14-1.25c-1.43-.84-2.54-2.07-3.32-3.69-.78-1.63-1.16-3.63-1.16-6.01v-1.61c0-4.73.92-8.24,2.76-10.52,1.84-2.28,4.55-3.44,8.12-3.48.97-.02,1.85-.02,2.63-.01.78,0,1.47-.03,2.06-.11.6-.08,1.09-.26,1.48-.54Zm-7.4,23.01c.83,0,1.55-.22,2.15-.65.6-.43,1.07-1.06,1.39-1.87.33-.81.5-1.78.5-2.9s-.17-2.06-.5-2.84c-.32-.78-.79-1.38-1.39-1.79-.61-.41-1.33-.61-2.17-.61-.63,0-1.2.11-1.7.35-.5.23-.93.57-1.29,1.02-.35.44-.62.99-.82,1.65-.19.65-.28,1.39-.28,2.22,0,1.68.36,3,1.09,3.98.73.96,1.74,1.44,3.03,1.44Zm22.14,4.22c-2.02,0-3.76-.41-5.22-1.23-1.45-.83-2.57-1.99-3.35-3.5-.78-1.52-1.18-3.31-1.18-5.38s.39-3.79,1.18-5.32c.78-1.53,1.89-2.71,3.31-3.57,1.43-.85,3.11-1.28,5.04-1.28,1.3,0,2.5.21,3.62.63,1.12.41,2.1,1.03,2.94,1.85.84.83,1.5,1.87,1.97,3.12.47,1.24.7,2.7.7,4.37v1.49h-16.58v-3.38h11.45c0-.78-.17-1.48-.51-2.08-.34-.6-.81-1.08-1.42-1.42-.6-.35-1.29-.52-2.08-.52s-1.56.19-2.2.58c-.63.38-1.12.88-1.48,1.52-.36.63-.54,1.33-.55,2.11v3.21c0,.97.18,1.81.54,2.52.37.71.88,1.25,1.55,1.64.67.38,1.45.57,2.37.57.61,0,1.16-.08,1.66-.26.5-.17.93-.43,1.29-.77.36-.34.63-.76.82-1.25l5.04.33c-.26,1.21-.78,2.27-1.57,3.17-.78.9-1.8,1.59-3.04,2.1-1.24.49-2.66.74-4.28.74Zm12.57,6.98v-27h5.37v3.3h.24c.24-.53.58-1.07,1.04-1.61.46-.55,1.06-1.01,1.79-1.38.74-.38,1.66-.56,2.76-.56,1.43,0,2.75.38,3.96,1.12,1.21.74,2.18,1.86,2.9,3.36.72,1.49,1.09,3.36,1.09,5.61s-.35,4.04-1.06,5.55c-.7,1.5-1.65,2.64-2.86,3.41-1.2.77-2.55,1.15-4.04,1.15-1.06,0-1.96-.18-2.7-.53-.73-.35-1.33-.79-1.8-1.32-.47-.54-.83-1.08-1.07-1.62h-.17v10.51h-5.45Zm5.33-17.18c0,1.17.16,2.19.49,3.05.32.87.79,1.55,1.41,2.03.61.48,1.36.72,2.24.72s1.64-.24,2.25-.73c.61-.49,1.08-1.18,1.39-2.04.32-.88.49-1.89.49-3.03s-.16-2.13-.47-2.99c-.32-.86-.78-1.53-1.39-2.02-.61-.49-1.37-.73-2.26-.73s-1.64.23-2.25.7c-.61.47-1.07,1.13-1.39,1.99-.32.86-.49,1.88-.49,3.04Zm17.45,9.82v-19.64h5.45v19.64h-5.45Zm2.74-22.17c-.81,0-1.5-.27-2.08-.81-.57-.54-.86-1.2-.86-1.96s.29-1.39.86-1.93c.58-.55,1.27-.82,2.08-.82s1.5.27,2.07.82c.58.54.87,1.18.87,1.93s-.29,1.41-.87,1.96c-.57.54-1.26.81-2.07.81Zm6.05,6.81v-4.28h17.79v4.28h-6.33v15.35h-5.19v-15.35h-6.28Zm24.51,1.75h5.87c2.6,0,4.63.62,6.08,1.87,1.46,1.24,2.19,2.89,2.19,4.96,0,1.35-.33,2.53-.98,3.55-.66,1.01-1.6,1.81-2.84,2.38-1.24.56-2.72.84-4.45.84h-9.28v-19.64h5.2v15.35h4.08c.91,0,1.66-.23,2.25-.69.59-.46.89-1.05.89-1.76,0-.76-.31-1.38-.89-1.85-.59-.49-1.34-.73-2.25-.73h-5.87v-4.28Zm26.08,20.97v-27h5.37v3.3h.24c.24-.53.58-1.07,1.04-1.61.46-.55,1.06-1.01,1.79-1.38.74-.38,1.66-.56,2.76-.56,1.43,0,2.75.38,3.96,1.12,1.21.74,2.18,1.86,2.9,3.36.72,1.49,1.09,3.36,1.09,5.61s-.35,4.04-1.06,5.55c-.7,1.5-1.65,2.64-2.86,3.41-1.2.77-2.55,1.15-4.04,1.15-1.06,0-1.96-.18-2.7-.53-.73-.35-1.33-.79-1.8-1.32-.47-.54-.83-1.08-1.07-1.62h-.17v10.51h-5.45Zm5.33-17.18c0,1.17.16,2.19.49,3.05.32.87.79,1.55,1.41,2.03.61.48,1.36.72,2.24.72s1.64-.24,2.25-.73c.61-.49,1.08-1.18,1.39-2.04.32-.88.48-1.89.48-3.03s-.16-2.13-.47-2.99c-.32-.86-.78-1.53-1.39-2.02-.61-.49-1.37-.73-2.26-.73s-1.64.23-2.25.7c-.6.47-1.07,1.13-1.39,1.99-.32.86-.49,1.88-.49,3.04Zm17.45,9.82v-19.64h5.45v19.64h-5.45Zm2.74-22.17c-.81,0-1.5-.27-2.08-.81-.57-.54-.86-1.2-.86-1.96s.29-1.39.86-1.93c.58-.55,1.27-.82,2.08-.82s1.5.27,2.07.82c.58.54.87,1.18.87,1.93s-.29,1.41-.87,1.96c-.57.54-1.26.81-2.07.81Zm7.07,22.17v-19.64h8.37c2.42,0,4.33.46,5.74,1.38,1.41.92,2.11,2.23,2.11,3.93,0,1.06-.4,1.95-1.19,2.66-.79.71-1.89,1.18-3.3,1.43,1.18.09,2.18.35,3,.81.83.44,1.47,1.02,1.9,1.73.44.71.66,1.49.66,2.35,0,1.12-.3,2.08-.89,2.88-.59.8-1.45,1.41-2.6,1.84-1.13.43-2.52.64-4.15.64h-9.67Zm5.08-4.08h4.59c.76,0,1.35-.18,1.78-.54.43-.37.65-.86.65-1.5,0-.7-.22-1.25-.65-1.65-.43-.4-1.02-.6-1.78-.6h-4.59v4.28Zm0-7.48h3.41c.55,0,1.01-.08,1.39-.23.39-.16.69-.39.89-.69.21-.3.32-.65.32-1.06,0-.61-.24-1.08-.73-1.42-.49-.34-1.15-.51-1.99-.51h-3.3v3.91Zm24.62,11.94c-2.02,0-3.76-.41-5.22-1.23-1.45-.83-2.57-1.99-3.35-3.5-.78-1.52-1.18-3.31-1.18-5.38s.39-3.79,1.18-5.32c.78-1.53,1.89-2.71,3.31-3.57,1.43-.85,3.11-1.28,5.04-1.28,1.29,0,2.5.21,3.62.63,1.12.41,2.11,1.03,2.94,1.85.84.83,1.5,1.87,1.97,3.12.47,1.24.7,2.7.7,4.37v1.49h-16.58v-3.38h11.45c0-.78-.17-1.48-.51-2.08-.34-.6-.81-1.08-1.42-1.42-.6-.35-1.29-.52-2.08-.52s-1.56.19-2.2.58c-.63.38-1.12.88-1.48,1.52-.36.63-.54,1.33-.55,2.11v3.21c0,.97.18,1.81.54,2.52.37.71.88,1.25,1.55,1.64.66.38,1.45.57,2.36.57.6,0,1.16-.08,1.66-.26.5-.17.93-.43,1.29-.77.36-.34.63-.76.82-1.25l5.04.33c-.26,1.21-.78,2.27-1.57,3.17-.78.9-1.8,1.59-3.04,2.1-1.24.49-2.66.74-4.28.74Zm26.23-12.38v4.28h-10.25v-4.28h10.25Zm-8.46-7.65v19.64h-5.2v-19.64h5.2Zm11.88,0v19.64h-5.16v-19.64h5.16Zm7.64,6.03h5.87c2.6,0,4.63.62,6.08,1.87,1.46,1.24,2.19,2.89,2.19,4.96,0,1.35-.33,2.53-.98,3.55-.66,1.01-1.6,1.81-2.84,2.38-1.23.56-2.72.84-4.45.84h-9.28v-19.64h5.2v15.35h4.08c.91,0,1.66-.23,2.25-.69.59-.46.89-1.05.89-1.76,0-.76-.31-1.38-.89-1.85-.59-.49-1.34-.73-2.25-.73h-5.87v-4.28Zm20.93,13.93c-.84,0-1.57-.3-2.17-.89-.6-.61-.89-1.33-.89-2.17s.3-1.55.89-2.15c.61-.6,1.33-.89,2.17-.89s1.53.3,2.15.89c.61.6.92,1.31.92,2.15,0,.56-.15,1.08-.43,1.55-.28.46-.65.83-1.11,1.11-.46.27-.97.41-1.52.41Zm0-13.76c-.84,0-1.57-.3-2.17-.89-.6-.6-.89-1.32-.89-2.17s.3-1.55.89-2.14c.61-.6,1.33-.89,2.17-.89s1.53.3,2.15.89c.61.59.92,1.3.92,2.14,0,.57-.15,1.09-.43,1.56-.28.46-.65.83-1.11,1.1-.46.27-.97.41-1.52.41Z"/>
    <path class="cls-1" d="m424.93,0v8.11h-21.05v38.43h-9.84V0h30.89Zm2.49,59.64V11.64h9.55v5.86h.43c.42-.94,1.04-1.89,1.84-2.86.82-.98,1.88-1.8,3.18-2.45,1.32-.67,2.96-1,4.91-1,2.55,0,4.89.67,7.05,2,2.15,1.32,3.87,3.31,5.16,5.98,1.29,2.65,1.93,5.98,1.93,9.98s-.63,7.18-1.89,9.86c-1.24,2.67-2.94,4.69-5.09,6.07-2.14,1.36-4.53,2.05-7.18,2.05-1.88,0-3.48-.31-4.8-.93-1.3-.62-2.37-1.4-3.2-2.34-.83-.95-1.47-1.92-1.91-2.89h-.3v18.68h-9.68Zm9.48-30.55c0,2.08.29,3.89.86,5.43.58,1.55,1.41,2.75,2.5,3.61,1.09.85,2.42,1.27,3.98,1.27s2.91-.43,4-1.3c1.09-.88,1.92-2.09,2.48-3.64.58-1.56.86-3.36.86-5.39s-.28-3.79-.84-5.32c-.56-1.53-1.39-2.73-2.48-3.59-1.09-.86-2.43-1.3-4.02-1.3s-2.91.42-4,1.25c-1.07.83-1.9,2.02-2.48,3.55s-.86,3.33-.86,5.41Zm40.98,18.11c-2.23,0-4.21-.39-5.96-1.16-1.74-.79-3.12-1.95-4.14-3.48-1-1.55-1.5-3.47-1.5-5.77,0-1.94.36-3.57,1.07-4.89.71-1.32,1.68-2.38,2.91-3.18,1.23-.8,2.62-1.41,4.18-1.82,1.58-.41,3.23-.7,4.95-.86,2.03-.21,3.67-.41,4.91-.59,1.24-.2,2.14-.48,2.7-.86.56-.38.84-.94.84-1.68v-.14c0-1.44-.45-2.55-1.36-3.34-.89-.79-2.17-1.18-3.82-1.18-1.74,0-3.13.39-4.16,1.16-1.03.76-1.71,1.71-2.05,2.86l-8.95-.73c.45-2.12,1.35-3.95,2.68-5.5,1.33-1.56,3.05-2.76,5.16-3.59,2.12-.85,4.58-1.27,7.36-1.27,1.94,0,3.8.23,5.57.68,1.79.45,3.37,1.16,4.75,2.11,1.39.95,2.49,2.18,3.29,3.68.8,1.48,1.21,3.27,1.21,5.34v23.55h-9.18v-4.84h-.27c-.56,1.09-1.31,2.05-2.25,2.89-.94.82-2.07,1.46-3.39,1.93-1.32.45-2.84.68-4.57.68Zm2.77-6.68c1.42,0,2.68-.28,3.77-.84,1.09-.58,1.95-1.35,2.57-2.32.62-.97.93-2.07.93-3.3v-3.7c-.3.2-.72.38-1.25.55-.51.15-1.1.3-1.75.43-.65.12-1.3.23-1.95.34-.65.09-1.24.17-1.77.25-1.14.17-2.13.43-2.98.8-.85.36-1.51.86-1.98,1.48-.47.61-.7,1.36-.7,2.27,0,1.32.48,2.33,1.43,3.02.97.68,2.2,1.02,3.68,1.02Z"/>
  </g>
</svg>