<?xml version="1.0" encoding="UTF-8"?>
<svg id="_Шар_2" data-name="Шар 2" xmlns="http://www.w3.org/2000/svg" viewBox="0 0 921 876">
  <defs>
    <style>
      .cls-1 {
        fill: #fff7f5;
      }

      .cls-2 {
        fill: #e9e398;
      }

      .cls-3 {
        fill: #fff;
        stroke: #000;
      }

      .cls-4 {
        fill: #d3cb6c;
      }
    </style>
  </defs>
  <g id="_Шар_1-2" data-name="Шар 1">
    <rect class="cls-1" width="921" height="876"/>
    <path class="cls-3" d="m219.45,624.56c-16.96-21.06-15.75-53.62.16-89.39,15.9-35.74,46.44-74.53,87.85-107.88,41.41-33.35,85.82-54.9,124.13-62.82,38.34-7.92,70.41-2.15,87.37,18.91,16.96,21.06,15.75,53.62-.16,89.39-15.9,35.74-46.44,74.53-87.85,107.88-41.41,33.35-85.83,54.91-124.13,62.82-38.34,7.92-70.41,2.15-87.37-18.91Z"/>
    <ellipse class="cls-4" cx="572" cy="378" rx="98" ry="97"/>
    <ellipse class="cls-2" cx="572.6" cy="373.3" rx="68.54" ry="67.61"/>
    <path class="cls-4" d="m535.03,385.9l-2.11-2.61c.71.9,1.41,1.77,2.11,2.61l.69.86c9.83,17.53,36.7,42.31,65.53,1.16l1.4-4.62c-10.51,15.61-38.43,37.33-67.63,2.61Z"/>
    <ellipse class="cls-4" cx="548.55" cy="355.66" rx="9.62" ry="9.99"/>
    <ellipse class="cls-4" cx="590.64" cy="355.66" rx="9.62" ry="9.99"/>
  </g>
</svg>