<?xml version="1.0" encoding="UTF-8"?>
<svg id="_Шар_2" data-name="Шар 2" xmlns="http://www.w3.org/2000/svg" viewBox="0 0 921 876">
  <defs>
    <style>
      .cls-1 {
        fill: #fff7f5;
      }

      .cls-2 {
        fill: #e9e398;
      }

      .cls-3 {
        fill: #fff;
        stroke: #000;
      }

      .cls-4 {
        fill: #d3cb6c;
      }
    </style>
  </defs>
  <g id="_Шар_1-2" data-name="Шар 1">
    <rect class="cls-1" width="921" height="876"/>
    <path class="cls-3" d="m470.43,371.71c11.12-3.85,23.49-2.5,36.37,3.3,12.88,5.8,26.24,16.05,39.3,29.95,26.12,27.79,50.99,70.11,68.38,120.36,17.39,50.26,23.99,98.89,20.63,136.88-1.68,19-5.85,35.31-12.39,47.83-6.54,12.52-15.43,21.23-26.55,25.07-11.12,3.85-23.49,2.5-36.37-3.3-12.88-5.8-26.24-16.05-39.3-29.95-26.12-27.79-50.99-70.11-68.38-120.36-17.39-50.26-23.99-98.89-20.63-136.88,1.68-19,5.85-35.31,12.39-47.83,6.54-12.52,15.43-21.23,26.55-25.07Z"/>
    <path class="cls-3" d="m458.14,390.09c1.27-25.96,23.74-48.56,59.37-64.04,35.6-15.47,84.17-23.75,137.28-21.16,53.11,2.59,100.65,15.57,134.57,34.43,33.95,18.88,54.12,43.55,52.86,69.51-1.27,25.96-23.74,48.56-59.37,64.04-35.6,15.47-84.17,23.75-137.28,21.16-53.11-2.59-100.65-15.57-134.57-34.42-33.95-18.88-54.12-43.56-52.86-69.51Z"/>
    <path class="cls-3" d="m207.45,645.56c-16.96-21.06-15.75-53.62.16-89.39,15.9-35.74,46.44-74.53,87.85-107.88,41.41-33.35,85.82-54.9,124.13-62.82,38.34-7.92,70.41-2.15,87.37,18.91,16.96,21.06,15.75,53.62-.16,89.39-15.9,35.74-46.44,74.53-87.85,107.88-41.41,33.35-85.83,54.91-124.13,62.82-38.34,7.92-70.41,2.15-87.37-18.91Z"/>
    <path class="cls-3" d="m141.99,258.47c11.08-24.67,40.65-38.36,79.74-40.4,39.07-2.04,87.49,7.58,135.99,29.36,48.5,21.78,87.86,51.59,112.29,82.14,24.45,30.58,33.85,61.77,22.77,86.44-11.08,24.67-40.65,38.36-79.74,40.4-39.07,2.04-87.49-7.58-135.99-29.36-48.5-21.78-87.86-51.58-112.29-82.14-24.45-30.58-33.85-61.77-22.78-86.44Z"/>
    <ellipse class="cls-4" cx="489" cy="409" rx="98" ry="97"/>
    <ellipse class="cls-2" cx="489.6" cy="404.3" rx="68.54" ry="67.61"/>
    <path class="cls-4" d="m452.04,416.9l-2.11-2.61c.71.9,1.41,1.77,2.11,2.61l.69.86c9.83,17.53,36.7,42.31,65.53,1.16l1.4-4.62c-10.51,15.61-38.43,37.33-67.63,2.61Z"/>
    <ellipse class="cls-4" cx="465.55" cy="386.66" rx="9.62" ry="9.99"/>
    <ellipse class="cls-4" cx="507.64" cy="386.66" rx="9.62" ry="9.99"/>
  </g>
</svg>