<?xml version="1.0" encoding="UTF-8"?>
<svg id="_Шар_2" data-name="Шар 2" xmlns="http://www.w3.org/2000/svg" viewBox="0 0 694 793.92">
  <defs>
    <style>
      .cls-1 {
        fill: #61af66;
      }

      .cls-2 {
        fill: #c8dd9f;
      }

      .cls-3 {
        fill: #e9e398;
      }

      .cls-4 {
        fill: #fff;
        stroke: #000;
      }

      .cls-5 {
        fill: #c93838;
      }

      .cls-6 {
        fill: #d3cb6c;
      }
    </style>
  </defs>
  <g id="_Шар_1-2" data-name="Шар 1">
    <path class="cls-4" d="m319.93,687.6c-10.9,28.43-27.13,51.7-44.52,66.35-17.41,14.66-35.88,20.62-51.36,14.69-15.48-5.94-25.23-22.72-28.37-45.27-3.13-22.53.37-50.68,11.27-79.1,10.9-28.43,27.13-51.7,44.52-66.35,17.41-14.67,35.88-20.62,51.36-14.69,15.48,5.94,25.23,22.72,28.37,45.27,3.13,22.53-.37,50.68-11.27,79.1Z"/>
    <path class="cls-4" d="m320.24,304.48c16.27,25.74,25.22,52.65,26.57,75.36,1.35,22.72-4.92,41.09-18.94,49.95-14.01,8.86-33.3,6.64-53.24-4.33-19.93-10.96-40.4-30.6-56.67-56.33-16.27-25.74-25.22-52.65-26.57-75.36-1.35-22.72,4.92-41.09,18.94-49.95,14.01-8.86,33.3-6.64,53.25,4.33,19.93,10.96,40.4,30.6,56.67,56.33Z"/>
    <path class="cls-4" d="m473.62,637.21c10.26,28.67,13.12,56.89,9.48,79.34-3.65,22.47-13.78,39.03-29.38,44.61-15.61,5.58-33.95-.79-51.02-15.85-17.06-15.04-32.75-38.68-43-67.34-10.26-28.67-13.12-56.89-9.48-79.34,3.64-22.47,13.77-39.03,29.38-44.61,15.61-5.59,33.95.79,51.02,15.85,17.06,15.04,32.75,38.68,43,67.34Z"/>
    <path class="cls-4" d="m363.43,302.81c11.29-28.28,27.83-51.33,45.41-65.74,17.6-14.43,36.16-20.14,51.56-13.99,15.4,6.15,24.92,23.06,27.75,45.65,2.83,22.57-1.05,50.67-12.34,78.94-11.29,28.28-27.83,51.33-45.41,65.74-17.6,14.43-36.16,20.14-51.56,13.99-15.4-6.15-24.92-23.06-27.75-45.65-2.83-22.57,1.06-50.67,12.34-78.94Z"/>
    <path class="cls-4" d="m420.42,313.82c0,32.74-7.34,62.36-19.18,83.77-11.85,21.43-28.14,34.54-46.02,34.54s-34.17-13.11-46.02-34.54c-11.84-21.42-19.18-51.03-19.18-83.77s7.34-62.36,19.18-83.77c11.85-21.43,28.15-34.54,46.02-34.54s34.17,13.11,46.02,34.54c11.84,21.41,19.18,51.03,19.18,83.77Z"/>
    <path class="cls-4" d="m424.73,675.1c0,32.74-7.34,62.36-19.18,83.77-11.85,21.43-28.14,34.54-46.02,34.54s-34.17-13.11-46.02-34.54c-11.84-21.41-19.18-51.03-19.18-83.77s7.34-62.36,19.18-83.77c11.85-21.43,28.15-34.54,46.02-34.54s34.17,13.11,46.02,34.54c11.84,21.41,19.18,51.03,19.18,83.77Z"/>
    <path class="cls-4" d="m539.95,424.92c32.8-.11,62.49,7.12,83.98,18.87,21.51,11.76,34.7,27.98,34.76,45.83.06,17.85-13.02,34.15-34.45,46.06-21.41,11.89-51.06,19.32-83.86,19.43-32.8.11-62.49-7.12-83.99-18.87-21.51-11.76-34.7-27.98-34.76-45.83-.06-17.85,13.02-34.15,34.45-46.06,21.41-11.89,51.06-19.32,83.86-19.43Z"/>
    <path class="cls-4" d="m192.03,441.05c32.8-.11,62.49,7.12,83.98,18.87,21.51,11.76,34.7,27.98,34.76,45.83.06,17.85-13.02,34.15-34.45,46.06-21.41,11.89-51.06,19.32-83.86,19.43-32.8.11-62.49-7.12-83.98-18.87-21.51-11.76-34.7-27.98-34.76-45.83-.06-17.85,13.02-34.15,34.45-46.06,21.41-11.89,51.06-19.32,83.86-19.43Z"/>
    <path class="cls-4" d="m279.96,330.65c26.35,19.49,45.82,43.01,56.01,65.26,10.19,22.27,11.05,43.14.4,57.48-10.64,14.34-30.9,19.6-55.2,16.35-24.29-3.25-52.5-15-78.85-34.49-26.35-19.49-45.82-43.01-56.01-65.26-10.19-22.27-11.05-43.14-.4-57.48,10.64-14.34,30.9-19.6,55.2-16.35,24.29,3.25,52.49,15,78.85,34.49Z"/>
    <path class="cls-4" d="m533.09,560.76c26.35,19.49,45.82,43.01,56.01,65.26,10.19,22.27,11.05,43.14.4,57.48-10.64,14.34-30.9,19.6-55.2,16.35-24.29-3.25-52.49-15-78.85-34.49-26.35-19.49-45.82-43.01-56.01-65.26-10.19-22.27-11.05-43.14-.4-57.48,10.64-14.34,30.9-19.6,55.2-16.35,24.29,3.25,52.5,15,78.85,34.49Z"/>
    <path class="cls-4" d="m263.8,669.66c26.35-19.49,45.82-43.01,56.01-65.26,10.19-22.27,11.05-43.14.4-57.48-10.64-14.34-30.9-19.6-55.2-16.35-24.29,3.25-52.49,15-78.85,34.49-26.35,19.49-45.82,43.01-56.01,65.26-10.19,22.27-11.05,43.14-.4,57.48,10.64,14.34,30.9,19.6,55.2,16.35,24.29-3.25,52.49-15,78.85-34.49Z"/>
    <path class="cls-4" d="m533.09,424.5c26.35-19.49,45.82-43.01,56.01-65.26,10.19-22.27,11.05-43.14.4-57.48-10.64-14.34-30.9-19.6-55.2-16.35-24.29,3.25-52.49,15-78.85,34.49-26.35,19.49-45.82,43.01-56.01,65.26-10.19,22.27-11.05,43.14-.4,57.48,10.64,14.34,30.9,19.6,55.2,16.35,24.29-3.25,52.5-15,78.85-34.49Z"/>
    <ellipse class="cls-6" cx="358.98" cy="498.76" rx="87.79" ry="88.71"/>
    <ellipse class="cls-3" cx="359.52" cy="498.76" rx="61.4" ry="61.83"/>
    <path class="cls-6" d="m325.87,508.14l-1.89-2.39c.63.83,1.26,1.62,1.89,2.39l.62.78c8.81,16.03,32.87,38.69,58.7,1.06l1.26-4.23c-9.42,14.28-34.42,34.13-60.58,2.39Z"/>
    <ellipse class="cls-6" cx="337.98" cy="480.48" rx="8.62" ry="9.14"/>
    <ellipse class="cls-6" cx="375.68" cy="480.48" rx="8.62" ry="9.14"/>
    <rect class="cls-2" width="694" height="124"/>
    <path d="m184.23,51.09h5.05l11.86,28.98h.41l11.86-28.98h5.05v34.91h-3.96v-26.52h-.34l-10.91,26.52h-3.82l-10.91-26.52h-.34v26.52h-3.96v-34.91Zm72.16,17.45c0,3.68-.67,6.86-1.99,9.55-1.33,2.68-3.15,4.75-5.47,6.2-2.32,1.45-4.97,2.18-7.94,2.18s-5.62-.73-7.94-2.18c-2.32-1.45-4.14-3.52-5.47-6.2-1.33-2.68-1.99-5.86-1.99-9.55s.66-6.86,1.99-9.55c1.33-2.68,3.15-4.75,5.47-6.2,2.32-1.45,4.97-2.18,7.94-2.18s5.62.73,7.94,2.18c2.32,1.45,4.14,3.52,5.47,6.2,1.33,2.68,1.99,5.86,1.99,9.55Zm-4.09,0c0-3.02-.51-5.57-1.52-7.65-1-2.08-2.36-3.65-4.07-4.72-1.7-1.07-3.61-1.6-5.73-1.6s-4.03.53-5.74,1.6c-1.71,1.07-3.06,2.64-4.07,4.72-1,2.08-1.5,4.63-1.5,7.65s.5,5.57,1.5,7.65c1.01,2.08,2.37,3.65,4.07,4.72,1.72,1.07,3.63,1.6,5.74,1.6s4.02-.53,5.73-1.6c1.72-1.07,3.07-2.64,4.07-4.72,1.01-2.08,1.52-4.63,1.52-7.65Zm8.2,17.45v-3.89h1.02c1.45,0,2.59-.47,3.39-1.4.81-.93,1.39-2.44,1.74-4.52.36-2.08.61-4.84.73-8.27l.61-16.84h21.27v34.91h-4.23v-31.16h-13.02l-.55,13.91c-.14,3.66-.47,6.77-1.01,9.34-.53,2.57-1.47,4.53-2.81,5.88-1.34,1.35-3.3,2.03-5.86,2.03h-1.29Zm66.67-17.45c0,3.68-.66,6.86-1.99,9.55-1.33,2.68-3.15,4.75-5.47,6.2-2.32,1.45-4.97,2.18-7.94,2.18s-5.62-.73-7.94-2.18c-2.32-1.45-4.14-3.52-5.47-6.2-1.33-2.68-1.99-5.86-1.99-9.55s.67-6.86,1.99-9.55c1.33-2.68,3.15-4.75,5.47-6.2,2.32-1.45,4.97-2.18,7.94-2.18s5.62.73,7.94,2.18c2.32,1.45,4.14,3.52,5.47,6.2,1.33,2.68,1.99,5.86,1.99,9.55Zm-4.09,0c0-3.02-.51-5.57-1.52-7.65-1-2.08-2.36-3.65-4.07-4.72-1.7-1.07-3.61-1.6-5.73-1.6s-4.03.53-5.74,1.6c-1.7,1.07-3.06,2.64-4.07,4.72-1,2.08-1.5,4.63-1.5,7.65s.5,5.57,1.5,7.65c1.01,2.08,2.37,3.65,4.07,4.72,1.72,1.07,3.63,1.6,5.74,1.6s4.02-.53,5.73-1.6c1.72-1.07,3.07-2.64,4.07-4.72,1.01-2.08,1.52-4.63,1.52-7.65Zm8.2,25.91v-12.2h2.25c.77-.7,1.5-1.7,2.18-2.98.69-1.3,1.28-3.02,1.76-5.18.49-2.17.81-4.93.97-8.27l.75-14.73h20.73v31.16h4.02v12.14h-4.02v-8.39h-24.61v8.45h-4.02Zm7.3-12.2h17.32v-27.41h-12.89l-.55,10.98c-.14,2.55-.38,4.85-.72,6.92-.34,2.06-.78,3.88-1.31,5.47-.54,1.58-1.15,2.93-1.86,4.04Zm31.75,3.75v-34.91h21.07v3.75h-16.84v11.8h15.75v3.75h-15.75v11.86h17.11v3.75h-21.34Zm58.35-4.02l-.48,12.27h-4.36v-8.25h-2.45v-4.02h7.3Zm-29.66,4.02v-34.91h4.02v31.02h18v-31.02h4.02v34.91h-26.04Zm39.18-20.25h9.95c2.5,0,4.61.41,6.32,1.23,1.73.82,3.03,1.97,3.92,3.46.9,1.49,1.35,3.24,1.35,5.27s-.45,3.81-1.35,5.35c-.89,1.55-2.19,2.76-3.92,3.63-1.72.88-3.82,1.31-6.32,1.31h-13.09v-34.91h4.23v31.23h8.86c1.59,0,2.94-.32,4.04-.95,1.11-.65,1.95-1.48,2.52-2.49.58-1.02.87-2.1.87-3.24,0-1.67-.64-3.11-1.93-4.31-1.28-1.22-3.12-1.82-5.51-1.82h-9.95v-3.75Zm33-14.66l-.34,25.09h-3.95l-.34-25.09h4.64Zm-2.32,35.18c-.84,0-1.56-.3-2.16-.9-.6-.6-.9-1.32-.9-2.16s.3-1.56.9-2.16c.6-.6,1.32-.9,2.16-.9s1.56.3,2.17.9c.6.6.9,1.32.9,2.16,0,.56-.14,1.07-.43,1.53-.27.47-.64.84-1.11,1.12-.45.27-.97.41-1.53.41Z"/>
    <path class="cls-5" d="m355,419.02c9.5,28.68,42.5,76.27,98.48,37.24,8.64-36.38,23.32-113.76,12.96-132.25-32.83,19.26-101.07,65.23-111.43,95.02Z"/>
    <path class="cls-3" d="m389,398l4.04,10.71h13.08l-10.58,6.62,4.04,10.71-10.58-6.62-10.58,6.62,4.04-10.71-10.58-6.62h13.08l4.04-10.71Z"/>
    <path class="cls-3" d="m446.5,349l4.15,11.4h13.44l-10.87,7.05,4.15,11.4-10.87-7.05-10.87,7.05,4.15-11.4-10.87-7.05h13.44l4.15-11.4Z"/>
    <path class="cls-3" d="m426.8,403.25l7.14,7.12,10.01-4.72-5.59,9.12,7.14,7.12-10.6-1.48-5.59,9.13-.96-10.04-10.6-1.48,10.01-4.72-.96-10.04Z"/>
    <path class="cls-3" d="m410.19,378.34l5.26,5.13,6.17-3.36-2.92,6.53,5.26,5.13-7.07-1.1-2.92,6.53-1.45-7.2-7.07-1.1,6.17-3.36-1.44-7.2Z"/>
    <path class="cls-3" d="m414.94,441.51l5.26,5.13,6.17-3.36-2.92,6.53,5.26,5.13-7.07-1.1-2.92,6.53-1.44-7.2-7.07-1.1,6.17-3.36-1.44-7.21Z"/>
    <path class="cls-1" d="m463.79,309.83c1.91-5.29,9.38-5.29,11.29,0l.18.5c.83,2.31,2.99,3.88,5.45,3.96l.53.02c5.62.18,7.93,7.29,3.49,10.74l-.42.33c-1.94,1.51-2.77,4.05-2.08,6.41l.15.51c1.56,5.4-4.48,9.79-9.13,6.64l-.44-.3c-2.03-1.38-4.71-1.38-6.74,0l-.44.3c-4.65,3.16-10.7-1.24-9.13-6.64l.15-.51c.68-2.36-.14-4.9-2.08-6.41l-.42-.33c-4.44-3.45-2.13-10.56,3.49-10.74l.53-.02c2.46-.08,4.62-1.65,5.45-3.96l.18-.5Z"/>
    <path class="cls-1" d="m474.09,309.48c4.82-2.89,10.61,1.85,8.74,7.15l-.18.5c-.82,2.32-.14,4.9,1.71,6.52l.4.35c4.23,3.7,1.52,10.66-4.1,10.52h-.53c-2.46-.08-4.71,1.37-5.67,3.63l-.21.49c-2.21,5.17-9.67,4.74-11.27-.65l-.15-.51c-.7-2.36-2.77-4.05-5.22-4.27l-.53-.05c-5.6-.5-7.5-7.73-2.87-10.92l.44-.3c2.02-1.39,2.99-3.88,2.45-6.28l-.12-.52c-1.25-5.48,5.04-9.52,9.5-6.1l.42.32c1.95,1.49,4.62,1.65,6.73.39l.46-.27Z"/>
  </g>
</svg>