<?xml version="1.0" encoding="UTF-8"?>
<svg id="_Шар_2" data-name="Шар 2" xmlns="http://www.w3.org/2000/svg" viewBox="0 0 694 388.47">
  <defs>
    <style>
      .cls-1 {
        fill: #c8dd9f;
      }

      .cls-2 {
        fill: #e9e398;
      }

      .cls-3 {
        fill: #69c4cf;
      }

      .cls-4 {
        fill: #d3cb6c;
      }
    </style>
  </defs>
  <g id="_Шар_1-2" data-name="Шар 1">
    <rect class="cls-1" width="694" height="124"/>
    <path d="m59.32,48.84v-3.75h26.18v3.75h-10.98v31.16h-4.23v-31.16h-10.98Zm39.34,31.7c-2.52,0-4.7-.56-6.53-1.67-1.82-1.12-3.22-2.69-4.21-4.7-.98-2.02-1.47-4.38-1.47-7.06s.49-5.05,1.47-7.09c.99-2.06,2.36-3.66,4.12-4.81,1.77-1.16,3.84-1.74,6.2-1.74,1.36,0,2.71.23,4.04.68,1.33.45,2.54,1.19,3.63,2.22,1.09,1.01,1.96,2.35,2.61,4.02.65,1.67.97,3.73.97,6.17v1.7h-20.18v-3.48h16.09c0-1.48-.29-2.8-.89-3.95-.58-1.16-1.41-2.07-2.49-2.74-1.07-.67-2.33-1.01-3.78-1.01-1.6,0-2.99.4-4.16,1.19-1.16.78-2.05,1.81-2.68,3.07-.62,1.26-.94,2.61-.94,4.06v2.32c0,1.98.34,3.65,1.02,5.03.69,1.36,1.65,2.4,2.88,3.12,1.23.7,2.65,1.06,4.28,1.06,1.06,0,2.01-.15,2.86-.44.86-.31,1.61-.76,2.23-1.36.62-.61,1.11-1.38,1.45-2.28l3.89,1.09c-.41,1.32-1.1,2.48-2.06,3.48-.96.99-2.16,1.76-3.58,2.32-1.42.55-3.02.82-4.79.82Zm16.96-.55v-26.18h20.59v26.18h-4.02v-22.43h-12.55v22.43h-4.02Zm38.91.55c-2.52,0-4.7-.56-6.53-1.67-1.82-1.12-3.22-2.69-4.21-4.7-.98-2.02-1.46-4.38-1.46-7.06s.49-5.05,1.46-7.09c.99-2.06,2.36-3.66,4.12-4.81,1.77-1.16,3.84-1.74,6.21-1.74,1.36,0,2.71.23,4.04.68,1.33.45,2.54,1.19,3.63,2.22,1.09,1.01,1.96,2.35,2.61,4.02.65,1.67.97,3.73.97,6.17v1.7h-20.18v-3.48h16.09c0-1.48-.29-2.8-.89-3.95-.58-1.16-1.41-2.07-2.49-2.74-1.07-.67-2.33-1.01-3.78-1.01-1.6,0-2.99.4-4.16,1.19-1.16.78-2.05,1.81-2.68,3.07-.62,1.26-.94,2.61-.94,4.06v2.32c0,1.98.34,3.65,1.02,5.03.69,1.36,1.65,2.4,2.88,3.12,1.23.7,2.65,1.06,4.28,1.06,1.06,0,2.01-.15,2.86-.44.86-.31,1.61-.76,2.23-1.36.62-.61,1.11-1.38,1.45-2.28l3.89,1.09c-.41,1.32-1.1,2.48-2.06,3.48-.96.99-2.16,1.76-3.58,2.32-1.42.55-3.02.82-4.79.82Zm16.96,9.27v-36h3.89v4.16h.48c.29-.45.71-1.03,1.23-1.74.53-.72,1.3-1.35,2.28-1.91,1-.57,2.35-.85,4.06-.85,2.21,0,4.15.55,5.83,1.65,1.68,1.1,2.99,2.66,3.94,4.69.94,2.02,1.42,4.41,1.42,7.16s-.47,5.18-1.42,7.21c-.94,2.02-2.25,3.59-3.92,4.7-1.67,1.1-3.6,1.65-5.78,1.65-1.68,0-3.03-.28-4.04-.84-1.01-.57-1.79-1.21-2.34-1.93-.54-.73-.97-1.33-1.26-1.81h-.34v13.84h-4.02Zm3.96-22.91c0,1.98.29,3.72.87,5.23.58,1.5,1.43,2.68,2.54,3.53,1.11.84,2.48,1.26,4.09,1.26s3.08-.44,4.21-1.33c1.14-.9,1.99-2.1,2.56-3.61.58-1.52.87-3.22.87-5.08s-.28-3.5-.85-4.98c-.56-1.49-1.4-2.66-2.54-3.53-1.12-.88-2.54-1.31-4.24-1.31s-3.01.41-4.12,1.24c-1.11.82-1.96,1.97-2.52,3.44-.57,1.47-.85,3.18-.85,5.13Zm54.54,13.09v-22.5h-6.95c-1.57,0-2.8.36-3.7,1.09-.9.73-1.35,1.73-1.35,3s.4,2.23,1.21,2.95c.82.72,1.94,1.07,3.36,1.07h8.46v3.75h-8.46c-1.77,0-3.3-.31-4.58-.94-1.28-.62-2.27-1.52-2.97-2.68-.69-1.17-1.04-2.56-1.04-4.16s.36-3,1.09-4.16c.73-1.16,1.77-2.05,3.12-2.68,1.36-.62,2.98-.94,4.86-.94h10.77v26.18h-3.82Zm-17.45,0l7.43-13.02h4.36l-7.43,13.02h-4.36Zm39.84,0v-3.75h.96c.78,0,1.44-.15,1.96-.46.52-.32.94-.87,1.26-1.65.33-.8.58-1.9.75-3.31.18-1.42.31-3.23.39-5.42l.48-11.59h17.45v26.18h-4.02v-22.43h-9.61l-.41,9.34c-.09,2.15-.28,4.04-.58,5.68-.28,1.62-.72,2.99-1.31,4.09-.58,1.1-1.35,1.93-2.32,2.49-.97.56-2.18.84-3.63.84h-1.36Zm34.65-5.93l12.61-20.25h4.64v26.18h-4.02v-20.25l-12.55,20.25h-4.7v-26.18h4.02v20.25Zm35.25,6.48c-2.45,0-4.57-.58-6.34-1.74-1.77-1.16-3.14-2.76-4.09-4.79-.95-2.03-1.43-4.36-1.43-6.97s.49-5.01,1.47-7.04c.99-2.05,2.36-3.64,4.12-4.79,1.77-1.16,3.84-1.74,6.2-1.74,1.84,0,3.5.34,4.98,1.02,1.48.68,2.69,1.64,3.63,2.86.94,1.23,1.53,2.66,1.76,4.3h-4.02c-.31-1.19-.99-2.25-2.05-3.17-1.05-.93-2.45-1.4-4.23-1.4-1.57,0-2.94.41-4.12,1.23-1.17.81-2.08,1.95-2.74,3.43-.65,1.47-.97,3.19-.97,5.16s.32,3.78.95,5.28c.65,1.5,1.56,2.66,2.73,3.49,1.18.83,2.57,1.24,4.16,1.24,1.05,0,1.99-.18,2.85-.55.85-.36,1.57-.89,2.16-1.57s1.01-1.5,1.26-2.45h4.02c-.23,1.55-.79,2.94-1.69,4.18-.89,1.23-2.06,2.2-3.53,2.93-1.45.72-3.15,1.07-5.08,1.07Zm23.88.07c-1.66,0-3.17-.31-4.52-.94-1.35-.64-2.43-1.55-3.22-2.74-.79-1.2-1.19-2.66-1.19-4.36,0-1.5.3-2.72.89-3.65.59-.94,1.38-1.68,2.37-2.22.99-.53,2.08-.93,3.27-1.19,1.2-.27,2.41-.49,3.63-.65,1.59-.2,2.88-.36,3.87-.46,1-.11,1.73-.3,2.18-.56.47-.26.7-.72.7-1.36v-.14c0-1.68-.46-2.99-1.38-3.92-.91-.93-2.29-1.4-4.14-1.4s-3.43.42-4.52,1.26-1.86,1.74-2.3,2.69l-3.82-1.36c.68-1.59,1.59-2.83,2.73-3.72,1.15-.9,2.4-1.52,3.75-1.88,1.36-.36,2.7-.55,4.02-.55.84,0,1.81.1,2.9.31,1.1.19,2.16.6,3.19,1.21,1.03.61,1.89,1.54,2.57,2.78.68,1.24,1.02,2.9,1.02,4.98v17.25h-4.02v-3.55h-.2c-.27.57-.73,1.18-1.36,1.82-.64.65-1.48,1.2-2.54,1.65-1.06.45-2.35.68-3.87.68Zm.61-3.61c1.59,0,2.93-.31,4.02-.94,1.1-.62,1.93-1.43,2.49-2.42.57-.99.85-2.03.85-3.12v-3.68c-.17.2-.55.39-1.12.56-.57.16-1.23.3-1.98.43-.74.11-1.46.22-2.17.31-.69.08-1.26.15-1.69.2-1.05.14-2.02.36-2.93.66-.9.3-1.62.74-2.18,1.35-.55.59-.82,1.4-.82,2.42,0,1.4.52,2.45,1.55,3.17,1.05.7,2.37,1.06,3.97,1.06Zm32.23,3v-26.18h4.02v26.18h-4.02Zm2.04-30.55c-.78,0-1.46-.27-2.03-.8-.56-.53-.84-1.18-.84-1.93s.28-1.39.84-1.93c.57-.53,1.24-.8,2.03-.8s1.46.27,2.01.8c.57.53.85,1.18.85,1.93s-.28,1.39-.85,1.93c-.56.53-1.23.8-2.01.8Zm33.48,31.09c-2.45,0-4.57-.58-6.34-1.74-1.77-1.16-3.14-2.76-4.09-4.79-.95-2.03-1.43-4.36-1.43-6.97s.49-5.01,1.47-7.04c.99-2.05,2.36-3.64,4.12-4.79,1.77-1.16,3.84-1.74,6.2-1.74,1.84,0,3.5.34,4.98,1.02,1.48.68,2.69,1.64,3.63,2.86.94,1.23,1.53,2.66,1.76,4.3h-4.02c-.31-1.19-.99-2.25-2.05-3.17-1.05-.93-2.45-1.4-4.23-1.4-1.57,0-2.94.41-4.12,1.23-1.17.81-2.08,1.95-2.74,3.43-.65,1.47-.97,3.19-.97,5.16s.32,3.78.95,5.28c.65,1.5,1.56,2.66,2.73,3.49,1.18.83,2.57,1.24,4.16,1.24,1.05,0,1.99-.18,2.85-.55.85-.36,1.57-.89,2.16-1.57s1.01-1.5,1.26-2.45h4.02c-.23,1.55-.79,2.94-1.69,4.18-.89,1.23-2.06,2.2-3.53,2.93-1.45.72-3.15,1.07-5.08,1.07Zm14.11-22.98v-3.75h21.27v3.75h-8.59v22.43h-4.02v-22.43h-8.66Zm27.14,32.25v-36h3.89v4.16h.48c.3-.45.7-1.03,1.23-1.74.53-.72,1.3-1.35,2.28-1.91,1-.57,2.35-.85,4.06-.85,2.21,0,4.15.55,5.83,1.65,1.68,1.1,2.99,2.66,3.94,4.69.94,2.02,1.42,4.41,1.42,7.16s-.47,5.18-1.42,7.21c-.94,2.02-2.25,3.59-3.92,4.7-1.67,1.1-3.6,1.65-5.78,1.65-1.68,0-3.03-.28-4.04-.84-1.01-.57-1.79-1.21-2.34-1.93-.54-.73-.97-1.33-1.26-1.81h-.34v13.84h-4.02Zm3.96-22.91c0,1.98.29,3.72.87,5.23.58,1.5,1.43,2.68,2.54,3.53,1.11.84,2.48,1.26,4.09,1.26s3.08-.44,4.21-1.33c1.14-.9,1.99-2.1,2.56-3.61.58-1.52.87-3.22.87-5.08s-.28-3.5-.85-4.98c-.56-1.49-1.4-2.66-2.54-3.53-1.12-.88-2.54-1.31-4.24-1.31s-3.01.41-4.12,1.24c-1.11.82-1.96,1.97-2.52,3.44-.57,1.47-.85,3.18-.85,5.13Zm33,13.7c-1.66,0-3.17-.31-4.52-.94-1.35-.64-2.43-1.55-3.22-2.74-.79-1.2-1.19-2.66-1.19-4.36,0-1.5.3-2.72.89-3.65.59-.94,1.38-1.68,2.37-2.22.99-.53,2.08-.93,3.27-1.19,1.2-.27,2.41-.49,3.63-.65,1.59-.2,2.88-.36,3.87-.46,1-.11,1.73-.3,2.18-.56.47-.26.7-.72.7-1.36v-.14c0-1.68-.46-2.99-1.38-3.92-.91-.93-2.29-1.4-4.14-1.4s-3.43.42-4.52,1.26c-1.09.84-1.86,1.74-2.3,2.69l-3.82-1.36c.68-1.59,1.59-2.83,2.73-3.72,1.15-.9,2.4-1.52,3.75-1.88,1.36-.36,2.71-.55,4.02-.55.84,0,1.81.1,2.9.31,1.1.19,2.16.6,3.19,1.21,1.03.61,1.89,1.54,2.57,2.78.68,1.24,1.02,2.9,1.02,4.98v17.25h-4.02v-3.55h-.2c-.27.57-.73,1.18-1.36,1.82-.64.65-1.48,1.2-2.54,1.65-1.06.45-2.35.68-3.87.68Zm.61-3.61c1.59,0,2.93-.31,4.02-.94,1.1-.62,1.93-1.43,2.49-2.42.57-.99.85-2.03.85-3.12v-3.68c-.17.2-.54.39-1.12.56-.57.16-1.23.3-1.98.43-.74.11-1.46.22-2.17.31-.69.08-1.26.15-1.69.2-1.05.14-2.02.36-2.93.66-.9.3-1.62.74-2.18,1.35-.55.59-.82,1.4-.82,2.42,0,1.4.52,2.45,1.55,3.17,1.05.7,2.37,1.06,3.97,1.06Zm18.73-23.18h4.02v22.43h9.89v-22.43h4.02v22.43h9.89v-22.43h4.02v26.18h-31.84v-26.18Zm56.71,11.25v3.75h-14.45v-3.75h14.45Zm-13.5-11.25v26.18h-4.02v-26.18h4.02Zm16.57,0v26.18h-4.02v-26.18h4.02Zm15.05,26.8c-1.66,0-3.17-.31-4.52-.94-1.35-.64-2.43-1.55-3.22-2.74-.8-1.2-1.19-2.66-1.19-4.36,0-1.5.29-2.72.89-3.65.59-.94,1.38-1.68,2.37-2.22.99-.53,2.08-.93,3.27-1.19,1.21-.27,2.42-.49,3.63-.65,1.59-.2,2.88-.36,3.87-.46,1-.11,1.73-.3,2.18-.56.47-.26.7-.72.7-1.36v-.14c0-1.68-.46-2.99-1.38-3.92-.91-.93-2.29-1.4-4.14-1.4s-3.43.42-4.52,1.26-1.86,1.74-2.3,2.69l-3.82-1.36c.68-1.59,1.59-2.83,2.73-3.72,1.15-.9,2.4-1.52,3.75-1.88,1.36-.36,2.71-.55,4.02-.55.84,0,1.81.1,2.9.31,1.1.19,2.16.6,3.19,1.21,1.03.61,1.89,1.54,2.57,2.78.68,1.24,1.02,2.9,1.02,4.98v17.25h-4.02v-3.55h-.21c-.27.57-.73,1.18-1.36,1.82-.64.65-1.48,1.2-2.54,1.65-1.06.45-2.35.68-3.87.68Zm.61-3.61c1.59,0,2.93-.31,4.02-.94,1.1-.62,1.93-1.43,2.49-2.42.57-.99.85-2.03.85-3.12v-3.68c-.17.2-.55.39-1.12.56-.57.16-1.23.3-1.98.43-.74.11-1.46.22-2.17.31-.69.08-1.26.15-1.69.2-1.04.14-2.02.36-2.93.66-.9.3-1.62.74-2.18,1.35-.55.59-.82,1.4-.82,2.42,0,1.4.52,2.45,1.55,3.17,1.04.7,2.37,1.06,3.97,1.06Zm20.16-11.73c0-4.3.56-8.24,1.67-11.85,1.12-3.61,2.73-6.94,4.81-9.97h3.54c-.82,1.12-1.58,2.51-2.3,4.16-.7,1.64-1.32,3.44-1.86,5.4-.53,1.95-.95,3.98-1.26,6.07-.29,2.09-.44,4.15-.44,6.19,0,2.7.26,5.45.78,8.23.52,2.78,1.23,5.37,2.11,7.76.89,2.39,1.88,4.33,2.96,5.83h-3.54c-2.08-3.03-3.68-6.35-4.81-9.95-1.11-3.61-1.67-7.57-1.67-11.86Z"/>
    <ellipse class="cls-4" cx="338.79" cy="299.76" rx="87.79" ry="88.71"/>
    <ellipse class="cls-2" cx="339.33" cy="299.76" rx="61.4" ry="61.83"/>
    <path class="cls-4" d="m367.62,333.85l1.75,2.49c-.58-.86-1.17-1.69-1.75-2.49l-.58-.82c-7.85-16.52-30.55-40.55-58.54-4.49l-1.5,4.15c10.24-13.7,36.36-32.06,60.62,1.16Z"/>
    <ellipse class="cls-4" cx="317.78" cy="281.48" rx="8.62" ry="9.14"/>
    <ellipse class="cls-4" cx="355.48" cy="281.48" rx="8.62" ry="9.14"/>
    <path class="cls-3" d="m363.64,290c-3.5,4.17-8.4,13.4,0,17,3.17-1.17,7.6-6.2,0-17Z"/>
  </g>
</svg>