<?xml version="1.0" encoding="UTF-8"?>
<svg id="_Шар_2" data-name="Шар 2" xmlns="http://www.w3.org/2000/svg" viewBox="0 0 1212 750">
  <defs>
    <style>
      .cls-1 {
        fill: #61a9c5;
      }

      .cls-2 {
        fill: #e9e398;
      }

      .cls-3 {
        fill: #fff;
        stroke: #000;
      }

      .cls-4 {
        fill: #d3cb6c;
      }
    </style>
  </defs>
  <g id="_Шар_2-2" data-name="Шар 2">
    <path class="cls-3" d="m322.3,293.5c0,30.45-6.81,57.98-17.8,77.89-11,19.93-26.12,32.11-42.7,32.11s-31.7-12.18-42.7-32.11c-10.99-19.91-17.8-47.45-17.8-77.89s6.81-57.98,17.8-77.89c11-19.93,26.12-32.11,42.7-32.11s31.7,12.18,42.7,32.11c10.99,19.91,17.8,47.45,17.8,77.89Z"/>
    <path class="cls-3" d="m326.3,629.5c0,30.45-6.81,57.98-17.8,77.89-11,19.93-26.12,32.11-42.7,32.11s-31.7-12.18-42.7-32.11c-10.99-19.91-17.8-47.45-17.8-77.89s6.81-57.98,17.8-77.89c11-19.93,26.12-32.11,42.7-32.11s31.7,12.18,42.7,32.11c10.99,19.91,17.8,47.45,17.8,77.89Z"/>
    <path class="cls-3" d="m433.3,396.87c30.45-.1,58.01,6.62,77.95,17.55,19.96,10.93,32.19,26.01,32.25,42.59.05,16.58-12.07,31.74-31.96,42.8-19.87,11.06-47.39,17.96-77.83,18.06-30.45.1-58.01-6.62-77.95-17.55-19.96-10.93-32.19-26.01-32.25-42.59-.05-16.58,12.07-31.74,31.96-42.8,19.87-11.06,47.39-17.96,77.83-18.06Z"/>
    <path class="cls-3" d="m110.3,411.87c30.44-.1,58.01,6.62,77.95,17.55,19.96,10.93,32.19,26.01,32.25,42.59.05,16.58-12.07,31.74-31.97,42.8-19.87,11.06-47.39,17.96-77.83,18.06-30.45.1-58.01-6.62-77.95-17.55C12.78,504.39.56,489.31.5,472.73c-.05-16.58,12.07-31.74,31.96-42.8,19.87-11.06,47.39-17.96,77.83-18.06Z"/>
    <path class="cls-3" d="m191.92,309.19c24.46,18.13,42.53,39.99,51.99,60.68,9.46,20.7,10.25,40.1.38,53.42-9.87,13.32-28.66,18.22-51.21,15.19-22.54-3.02-48.72-13.94-73.18-32.07-24.46-18.13-42.53-40-51.98-60.68-9.46-20.7-10.25-40.1-.38-53.42,9.87-13.32,28.66-18.21,51.22-15.19,22.54,3.02,48.72,13.94,73.18,32.07Z"/>
    <path class="cls-3" d="m426.92,523.19c24.46,18.13,42.53,39.99,51.98,60.68,9.46,20.7,10.25,40.1.38,53.42-9.87,13.32-28.66,18.22-51.21,15.19-22.54-3.02-48.72-13.94-73.19-32.07-24.46-18.13-42.53-39.99-51.98-60.68-9.46-20.7-10.25-40.1-.38-53.42,9.87-13.32,28.65-18.21,51.21-15.19,22.54,3.02,48.72,13.94,73.18,32.07Z"/>
    <path class="cls-3" d="m176.92,624.41c24.46-18.13,42.53-39.99,51.99-60.68,9.46-20.7,10.25-40.1.38-53.42-9.87-13.32-28.66-18.21-51.21-15.19-22.54,3.02-48.72,13.94-73.18,32.07-24.46,18.13-42.53,39.99-51.98,60.68-9.46,20.7-10.25,40.1-.38,53.42,9.87,13.32,28.66,18.22,51.22,15.19,22.54-3.02,48.72-13.94,73.18-32.07Z"/>
    <path class="cls-3" d="m426.92,396.41c24.46-18.13,42.53-40,51.98-60.68,9.46-20.7,10.25-40.1.38-53.42-9.87-13.32-28.66-18.21-51.21-15.19-22.54,3.02-48.72,13.94-73.19,32.07-24.46,18.13-42.53,39.99-51.98,60.68-9.46,20.7-10.25,40.1-.38,53.42,9.87,13.32,28.65,18.22,51.21,15.19,22.54-3.02,48.72-13.94,73.18-32.07Z"/>
    <ellipse class="cls-4" cx="265.3" cy="465.5" rx="81.5" ry="82.5"/>
    <ellipse class="cls-2" cx="265.8" cy="465.5" rx="57" ry="57.5"/>
    <path class="cls-4" d="m234.56,474.22l-1.76-2.22c.59.77,1.17,1.51,1.76,2.22l.58.73c8.17,14.91,30.52,35.98,54.5.98l1.17-3.93c-8.74,13.28-31.96,31.74-56.24,2.22Z"/>
    <ellipse class="cls-4" cx="245.8" cy="448.5" rx="8" ry="8.5"/>
    <ellipse class="cls-4" cx="280.8" cy="448.5" rx="8" ry="8.5"/>
    <path class="cls-3" d="m990.3,303.5c0,30.45-6.81,57.98-17.8,77.89-11,19.93-26.12,32.11-42.7,32.11s-31.7-12.18-42.7-32.11c-10.99-19.91-17.8-47.45-17.8-77.89s6.81-57.98,17.8-77.89c11-19.93,26.12-32.11,42.7-32.11s31.7,12.18,42.7,32.11c10.99,19.91,17.8,47.45,17.8,77.89Z"/>
    <path class="cls-3" d="m994.3,639.5c0,30.45-6.81,57.98-17.8,77.89-11,19.93-26.12,32.11-42.7,32.11s-31.7-12.18-42.7-32.11c-10.99-19.91-17.8-47.45-17.8-77.89s6.81-57.98,17.8-77.89c11-19.93,26.12-32.11,42.7-32.11s31.7,12.18,42.7,32.11c10.99,19.91,17.8,47.45,17.8,77.89Z"/>
    <path class="cls-3" d="m1101.3,406.87c30.45-.1,58.01,6.62,77.95,17.55,19.97,10.93,32.2,26.01,32.25,42.59.06,16.58-12.07,31.74-31.96,42.8-19.88,11.06-47.39,17.96-77.84,18.06-30.44.1-58-6.62-77.95-17.55-19.96-10.93-32.19-26.01-32.25-42.59-.06-16.58,12.08-31.74,31.97-42.8,19.87-11.06,47.39-17.96,77.83-18.06Z"/>
    <path class="cls-3" d="m778.3,421.87c30.45-.1,58.01,6.62,77.95,17.55,19.96,10.93,32.19,26.01,32.25,42.59.05,16.58-12.07,31.74-31.96,42.8-19.87,11.06-47.39,17.96-77.83,18.06-30.45.1-58.01-6.62-77.95-17.55-19.96-10.93-32.19-26.01-32.25-42.59-.06-16.58,12.07-31.74,31.96-42.8,19.87-11.06,47.39-17.96,77.83-18.06Z"/>
    <path class="cls-3" d="m859.92,319.19c24.46,18.13,42.53,39.99,51.99,60.68,9.46,20.7,10.25,40.1.38,53.42-9.87,13.32-28.66,18.22-51.21,15.19-22.54-3.02-48.72-13.94-73.18-32.07-24.46-18.13-42.53-40-51.98-60.68-9.46-20.7-10.25-40.1-.38-53.42,9.87-13.32,28.66-18.21,51.22-15.19,22.54,3.02,48.72,13.94,73.18,32.07Z"/>
    <path class="cls-3" d="m1094.92,533.19c24.46,18.13,42.53,39.99,51.98,60.68,9.46,20.7,10.25,40.1.38,53.42-9.87,13.32-28.66,18.22-51.22,15.19-22.54-3.02-48.72-13.94-73.18-32.07-24.46-18.13-42.53-39.99-51.98-60.68-9.46-20.7-10.25-40.1-.38-53.42,9.87-13.32,28.66-18.22,51.21-15.19,22.54,3.02,48.73,13.94,73.19,32.07Z"/>
    <path class="cls-3" d="m844.92,634.41c24.46-18.13,42.53-39.99,51.99-60.68,9.46-20.7,10.25-40.1.38-53.42-9.87-13.32-28.66-18.22-51.21-15.19-22.54,3.02-48.72,13.94-73.18,32.07-24.46,18.13-42.53,39.99-51.98,60.68-9.46,20.7-10.25,40.1-.38,53.42,9.87,13.32,28.66,18.22,51.22,15.19,22.54-3.02,48.72-13.94,73.18-32.07Z"/>
    <ellipse class="cls-4" cx="933.3" cy="475.5" rx="81.5" ry="82.5"/>
    <ellipse class="cls-2" cx="933.8" cy="475.5" rx="57" ry="57.5"/>
    <path class="cls-4" d="m902.56,484.22l-1.76-2.22c.59.77,1.17,1.51,1.76,2.22l.58.73c8.17,14.91,30.52,35.98,54.5.98l1.17-3.93c-8.74,13.28-31.96,31.74-56.24,2.22Z"/>
    <ellipse class="cls-4" cx="913.8" cy="458.5" rx="8" ry="8.5"/>
    <ellipse class="cls-4" cx="948.8" cy="458.5" rx="8" ry="8.5"/>
    <path class="cls-1" d="m348.8,72.71v80c77.33-56,268.8-141.2,416-34l-32,34,94,30,50-64-50-14c-16-71.33-134-177.6-478-32Z"/>
  </g>
</svg>