<?xml version="1.0" encoding="UTF-8"?>
<svg id="_Шар_2" data-name="Шар 2" xmlns="http://www.w3.org/2000/svg" viewBox="0 0 752.95 673.23">
  <defs>
    <style>
      .cls-1 {
        fill: #69ae62;
      }

      .cls-1, .cls-2 {
        stroke: #000;
      }

      .cls-3 {
        fill: #e9e398;
      }

      .cls-2 {
        fill: #fff;
      }

      .cls-4 {
        fill: #d3cb6c;
      }
    </style>
  </defs>
  <g id="_Шар_1-2" data-name="Шар 1">
    <path class="cls-1" d="m385.11,442.1c-23.32-48.99,9.08-113.36,72.73-143.66,63.65-30.3,134.05-14.88,157.37,34.12,23.32,48.99-9.08,113.36-72.73,143.66-63.65,30.3-134.05,14.88-157.37-34.12Z"/>
    <path class="cls-1" d="m378.12,672.53c-54.12-3.92-94.08-63.88-88.99-134.2,5.09-70.32,53.27-123.9,107.39-119.98,54.12,3.92,94.08,63.88,88.99,134.2-5.09,70.32-53.27,123.9-107.39,119.98Z"/>
    <path class="cls-1" d="m430.73,439.89c11.99-24.33,9.17-53.14-5.15-80.08-14.32-26.94-40.14-51.97-74.06-68.68-33.93-16.71-69.51-21.92-99.59-16.86-30.09,5.07-54.64,20.39-66.63,44.72-11.99,24.33-9.17,53.14,5.15,80.08,14.32,26.94,40.13,51.97,74.06,68.68,33.93,16.71,69.51,21.92,99.59,16.86,30.09-5.07,54.64-20.39,66.63-44.72Z"/>
    <path class="cls-2" d="m392.62.5c13.57,0,26.54,6.34,38.38,17.89,11.84,11.55,22.53,28.3,31.52,49.02,17.97,41.46,29.1,98.76,29.1,162.08s-11.13,120.63-29.1,162.08c-8.99,20.73-19.67,37.47-31.52,49.02-11.84,11.55-24.81,17.89-38.38,17.89s-26.54-6.34-38.38-17.89c-11.84-11.55-22.53-28.3-31.52-49.02-17.97-41.45-29.1-98.76-29.1-162.08s11.13-120.63,29.1-162.08c8.99-20.73,19.67-37.47,31.52-49.02,11.84-11.55,24.81-17.89,38.38-17.89Z"/>
    <path class="cls-2" d="m402.22,392.17c6.85,11.72,7.91,26.12,3.91,42.17-4,16.05-13.07,33.73-26.44,51.94-26.73,36.43-70.6,74.94-125.28,106.88-54.68,31.94-109.77,51.23-154.63,56.62-22.43,2.69-42.28,1.91-58.23-2.49-15.95-4.4-27.96-12.4-34.81-24.12-6.84-11.72-7.91-26.12-3.91-42.17,4-16.05,13.07-33.73,26.44-51.94,26.73-36.43,70.6-74.94,125.28-106.88,54.68-31.94,109.77-51.23,154.63-56.62,22.43-2.69,42.28-1.91,58.23,2.49,15.95,4.4,27.96,12.4,34.81,24.12Z"/>
    <path class="cls-2" d="m350.74,392.17c-6.85,11.72-7.91,26.12-3.91,42.17,4,16.05,13.07,33.73,26.44,51.94,26.73,36.43,70.6,74.94,125.28,106.88,54.68,31.94,109.77,51.23,154.63,56.62,22.43,2.69,42.28,1.91,58.23-2.49,15.95-4.4,27.96-12.4,34.81-24.12,6.84-11.72,7.91-26.12,3.91-42.17-4-16.05-13.07-33.73-26.44-51.94-26.73-36.43-70.6-74.94-125.28-106.88-54.68-31.94-109.77-51.23-154.63-56.62-22.43-2.69-42.28-1.91-58.23,2.49-15.95,4.4-27.96,12.4-34.81,24.12Z"/>
    <ellipse class="cls-4" cx="391.56" cy="459.12" rx="98" ry="97"/>
    <ellipse class="cls-3" cx="392.17" cy="454.41" rx="68.54" ry="67.61"/>
    <path class="cls-4" d="m354.6,467.02l-2.11-2.61c.7.9,1.41,1.77,2.11,2.61l.69.86c9.83,17.53,36.7,42.3,65.53,1.16l1.4-4.62c-10.51,15.61-38.43,37.33-67.63,2.61Z"/>
    <ellipse class="cls-4" cx="368.12" cy="436.78" rx="9.62" ry="9.99"/>
    <ellipse class="cls-4" cx="410.2" cy="436.78" rx="9.62" ry="9.99"/>
  </g>
</svg>