<?xml version="1.0" encoding="UTF-8"?>
<svg id="_Шар_2" data-name="Шар 2" xmlns="http://www.w3.org/2000/svg" viewBox="0 0 694 663.26">
  <defs>
    <style>
      .cls-1 {
        fill: #4261aa;
      }

      .cls-2 {
        fill: #69ae62;
      }

      .cls-2, .cls-3 {
        stroke: #000;
      }

      .cls-4 {
        fill: #c8dd9f;
      }

      .cls-5 {
        fill: #e9e398;
      }

      .cls-3 {
        fill: #fff;
      }

      .cls-6 {
        fill: #c93838;
      }

      .cls-7 {
        fill: #d3cb6c;
      }
    </style>
  </defs>
  <g id="_Шар_1-2" data-name="Шар 1">
    <path class="cls-1" d="m442.05,298.04c1.46-4.04,7.17-4.04,8.63,0,.64,1.77,2.29,2.97,4.17,3.03,4.29.14,6.06,5.57,2.67,8.21-1.48,1.15-2.11,3.1-1.59,4.9,1.2,4.13-3.43,7.48-6.98,5.07-1.55-1.05-3.6-1.05-5.15,0-3.55,2.41-8.18-.95-6.98-5.07.52-1.81-.11-3.75-1.59-4.9-3.39-2.63-1.63-8.07,2.67-8.21,1.88-.06,3.53-1.26,4.17-3.03Z"/>
    <path class="cls-1" d="m449.56,297.64c3.69-2.21,8.11,1.41,6.68,5.46-.63,1.77-.11,3.75,1.31,4.98,3.24,2.83,1.16,8.15-3.13,8.04-1.88-.05-3.6,1.06-4.33,2.78-1.69,3.95-7.39,3.62-8.61-.49-.54-1.8-2.12-3.09-3.99-3.26-4.28-.38-5.73-5.91-2.19-8.35,1.55-1.07,2.29-2.97,1.87-4.8-.96-4.19,3.85-7.28,7.26-4.66,1.49,1.14,3.53,1.26,5.14.3Z"/>
    <path class="cls-2" d="m342.35,466.42c-19.84-41.66,7.71-96.44,61.9-122.23,54.18-25.8,114.07-12.65,133.9,29.01,19.83,41.67-7.71,96.44-61.9,122.23-54.18,25.8-114.07,12.65-133.9-29.02Z"/>
    <path class="cls-2" d="m336.34,662.59c-46.02-3.33-80.04-54.34-75.71-114.19,4.33-59.85,45.34-105.43,91.37-102.1,46.02,3.33,80.04,54.34,75.71,114.19-4.33,59.85-45.34,105.43-91.37,102.1Z"/>
    <path class="cls-2" d="m381.06,464.53c10.19-20.69,7.8-45.2-4.38-68.12-12.19-22.92-34.16-44.23-63.03-58.45-28.88-14.23-59.16-18.66-84.76-14.35-25.6,4.31-46.49,17.35-56.68,38.04-10.19,20.69-7.8,45.2,4.38,68.12,12.19,22.93,34.15,44.23,63.03,58.46,28.88,14.22,59.16,18.66,84.76,14.35,25.6-4.31,46.49-17.35,56.68-38.04Z"/>
    <path class="cls-3" d="m348.5,146.5c9.84,0,19.26,4.61,27.87,13.02,8.61,8.42,16.39,20.62,22.94,35.74,13.09,30.24,21.19,72.04,21.19,118.24s-8.11,88.01-21.19,118.24c-6.54,15.12-14.32,27.32-22.94,35.74-8.61,8.42-18.03,13.02-27.87,13.02s-19.26-4.61-27.87-13.02c-8.61-8.42-16.39-20.62-22.94-35.74-13.09-30.24-21.19-72.04-21.19-118.24s8.11-88.01,21.19-118.24c6.54-15.12,14.32-27.32,22.94-35.74,8.61-8.41,18.03-13.02,27.87-13.02Z"/>
    <path class="cls-3" d="m356.79,423.97c11.66,19.96,6.62,47.28-11.21,75.41-17.82,28.11-48.33,56.9-87.34,79.68-39.01,22.78-79.08,35.22-112.31,36.93-33.26,1.71-59.53-7.33-71.19-27.29-11.66-19.96-6.62-47.28,11.21-75.41,17.81-28.11,48.33-56.9,87.34-79.68,39.01-22.78,79.08-35.22,112.31-36.92,33.26-1.71,59.53,7.33,71.19,27.28Z"/>
    <path class="cls-3" d="m313.08,423.97c-11.65,19.94-5.49,47.92,14.2,77.15,19.67,29.2,52.75,59.49,94.59,83.93,41.84,24.44,84.47,38.37,119.57,41.16,35.13,2.79,62.53-5.59,74.17-25.53,11.65-19.94,5.49-47.92-14.2-77.15-19.67-29.2-52.75-59.49-94.59-83.93-41.84-24.44-84.48-38.37-119.57-41.16-35.13-2.79-62.53,5.59-74.18,25.53Z"/>
    <ellipse class="cls-7" cx="347.78" cy="480.94" rx="83.45" ry="82.6"/>
    <ellipse class="cls-5" cx="348.29" cy="476.94" rx="58.36" ry="57.57"/>
    <path class="cls-7" d="m316.3,487.67l-1.8-2.22c.6.77,1.2,1.51,1.8,2.22l.59.73c8.37,14.93,31.25,36.02,55.8.98l1.2-3.94c-8.95,13.29-32.72,31.78-57.59,2.22Z"/>
    <ellipse class="cls-7" cx="327.82" cy="461.92" rx="8.19" ry="8.51"/>
    <ellipse class="cls-7" cx="363.65" cy="461.92" rx="8.19" ry="8.51"/>
    <rect class="cls-4" width="694" height="124"/>
    <path d="m184.23,51.09h5.05l11.86,28.98h.41l11.86-28.98h5.05v34.91h-3.96v-26.52h-.34l-10.91,26.52h-3.82l-10.91-26.52h-.34v26.52h-3.96v-34.91Zm72.16,17.45c0,3.68-.67,6.86-1.99,9.55-1.33,2.68-3.15,4.75-5.47,6.2-2.32,1.45-4.97,2.18-7.94,2.18s-5.62-.73-7.94-2.18c-2.32-1.45-4.14-3.52-5.47-6.2-1.33-2.68-1.99-5.86-1.99-9.55s.66-6.86,1.99-9.55c1.33-2.68,3.15-4.75,5.47-6.2,2.32-1.45,4.97-2.18,7.94-2.18s5.62.73,7.94,2.18c2.32,1.45,4.14,3.52,5.47,6.2,1.33,2.68,1.99,5.86,1.99,9.55Zm-4.09,0c0-3.02-.51-5.57-1.52-7.65-1-2.08-2.36-3.65-4.07-4.72-1.7-1.07-3.61-1.6-5.73-1.6s-4.03.53-5.74,1.6c-1.71,1.07-3.06,2.64-4.07,4.72-1,2.08-1.5,4.63-1.5,7.65s.5,5.57,1.5,7.65c1.01,2.08,2.37,3.65,4.07,4.72,1.72,1.07,3.63,1.6,5.74,1.6s4.02-.53,5.73-1.6c1.72-1.07,3.07-2.64,4.07-4.72,1.01-2.08,1.52-4.63,1.52-7.65Zm8.2,17.45v-3.89h1.02c1.45,0,2.59-.47,3.39-1.4.81-.93,1.39-2.44,1.74-4.52.36-2.08.61-4.84.73-8.27l.61-16.84h21.27v34.91h-4.23v-31.16h-13.02l-.55,13.91c-.14,3.66-.47,6.77-1.01,9.34-.53,2.57-1.47,4.53-2.81,5.88-1.34,1.35-3.3,2.03-5.86,2.03h-1.29Zm66.67-17.45c0,3.68-.66,6.86-1.99,9.55-1.33,2.68-3.15,4.75-5.47,6.2-2.32,1.45-4.97,2.18-7.94,2.18s-5.62-.73-7.94-2.18c-2.32-1.45-4.14-3.52-5.47-6.2-1.33-2.68-1.99-5.86-1.99-9.55s.67-6.86,1.99-9.55c1.33-2.68,3.15-4.75,5.47-6.2,2.32-1.45,4.97-2.18,7.94-2.18s5.62.73,7.94,2.18c2.32,1.45,4.14,3.52,5.47,6.2,1.33,2.68,1.99,5.86,1.99,9.55Zm-4.09,0c0-3.02-.51-5.57-1.52-7.65-1-2.08-2.36-3.65-4.07-4.72-1.7-1.07-3.61-1.6-5.73-1.6s-4.03.53-5.74,1.6c-1.7,1.07-3.06,2.64-4.07,4.72-1,2.08-1.5,4.63-1.5,7.65s.5,5.57,1.5,7.65c1.01,2.08,2.37,3.65,4.07,4.72,1.72,1.07,3.63,1.6,5.74,1.6s4.02-.53,5.73-1.6c1.72-1.07,3.07-2.64,4.07-4.72,1.01-2.08,1.52-4.63,1.52-7.65Zm8.2,25.91v-12.2h2.25c.77-.7,1.5-1.7,2.18-2.98.69-1.3,1.28-3.02,1.76-5.18.49-2.17.81-4.93.97-8.27l.75-14.73h20.73v31.16h4.02v12.14h-4.02v-8.39h-24.61v8.45h-4.02Zm7.3-12.2h17.32v-27.41h-12.89l-.55,10.98c-.14,2.55-.38,4.85-.72,6.92-.34,2.06-.78,3.88-1.31,5.47-.54,1.58-1.15,2.93-1.86,4.04Zm31.75,3.75v-34.91h21.07v3.75h-16.84v11.8h15.75v3.75h-15.75v11.86h17.11v3.75h-21.34Zm58.35-4.02l-.48,12.27h-4.36v-8.25h-2.45v-4.02h7.3Zm-29.66,4.02v-34.91h4.02v31.02h18v-31.02h4.02v34.91h-26.04Zm39.18-20.25h9.95c2.5,0,4.61.41,6.32,1.23,1.73.82,3.03,1.97,3.92,3.46.9,1.49,1.35,3.24,1.35,5.27s-.45,3.81-1.35,5.35c-.89,1.55-2.19,2.76-3.92,3.63-1.72.88-3.82,1.31-6.32,1.31h-13.09v-34.91h4.23v31.23h8.86c1.59,0,2.94-.32,4.04-.95,1.11-.65,1.95-1.48,2.52-2.49.58-1.02.87-2.1.87-3.24,0-1.67-.64-3.11-1.93-4.31-1.28-1.22-3.12-1.82-5.51-1.82h-9.95v-3.75Zm33-14.66l-.34,25.09h-3.95l-.34-25.09h4.64Zm-2.32,35.18c-.84,0-1.56-.3-2.16-.9-.6-.6-.9-1.32-.9-2.16s.3-1.56.9-2.16c.6-.6,1.32-.9,2.16-.9s1.56.3,2.17.9c.6.6.9,1.32.9,2.16,0,.56-.14,1.07-.43,1.53-.27.47-.64.84-1.11,1.12-.45.27-.97.41-1.53.41Z"/>
    <path class="cls-6" d="m331,410.02c9.5,28.68,42.5,76.27,98.48,37.24,8.64-36.38,23.32-113.76,12.96-132.25-32.83,19.26-101.07,65.23-111.43,95.02Z"/>
    <path class="cls-5" d="m365,389l4.04,10.71h13.08l-10.58,6.62,4.04,10.71-10.58-6.62-10.58,6.62,4.04-10.71-10.58-6.62h13.08l4.04-10.71Z"/>
    <path class="cls-5" d="m422.5,340l4.15,11.4h13.44l-10.87,7.05,4.15,11.4-10.87-7.05-10.87,7.05,4.15-11.4-10.87-7.05h13.44l4.15-11.4Z"/>
    <path class="cls-5" d="m402.8,394.25l7.14,7.12,10.01-4.72-5.59,9.12,7.14,7.12-10.6-1.48-5.59,9.13-.96-10.04-10.6-1.48,10.01-4.72-.96-10.04Z"/>
    <path class="cls-5" d="m386.19,369.34l5.26,5.13,6.17-3.36-2.92,6.53,5.26,5.13-7.07-1.1-2.92,6.53-1.45-7.2-7.07-1.1,6.17-3.36-1.44-7.2Z"/>
    <path class="cls-5" d="m390.94,432.51l5.26,5.13,6.17-3.36-2.92,6.53,5.26,5.13-7.07-1.1-2.92,6.53-1.44-7.2-7.07-1.1,6.17-3.36-1.44-7.21Z"/>
  </g>
</svg>