<?xml version="1.0" encoding="UTF-8"?>
<svg id="_Шар_2" data-name="Шар 2" xmlns="http://www.w3.org/2000/svg" viewBox="0 0 921 876">
  <defs>
    <style>
      .cls-1 {
        fill: #fff7f5;
      }

      .cls-2 {
        fill: #4261aa;
      }

      .cls-3 {
        fill: #c8dd9f;
      }

      .cls-4 {
        fill: #e9e398;
      }

      .cls-5 {
        fill: #fff;
        stroke: #000;
      }

      .cls-6 {
        fill: #c93838;
      }

      .cls-7 {
        fill: #d3cb6c;
      }
    </style>
  </defs>
  <g id="_Шар_1-2" data-name="Шар 1">
    <rect class="cls-1" width="921" height="876"/>
    <path class="cls-5" d="m515.02,600.1c1.78-14.39,12.91-25.1,29.66-30.71,16.74-5.61,39-6.1,62.81-.1,23.81,6,44.61,17.33,59,30.79,14.39,13.46,22.3,28.97,20.52,43.36-1.77,14.39-12.91,25.1-29.66,30.71-16.74,5.61-39,6.1-62.81.1-23.81-6-44.61-17.34-59-30.79-14.4-13.46-22.3-28.97-20.52-43.36Z"/>
    <path class="cls-5" d="m517.22,576.81c11.91-6.04,26.38-1.61,40.21,10.72,13.8,12.31,26.84,32.42,35.82,57.4,8.98,24.99,12.18,50.08,10.11,70.44-2.07,20.39-9.39,35.86-21.3,41.9-11.91,6.04-26.38,1.61-40.21-10.72-13.8-12.31-26.84-32.42-35.82-57.41-8.98-24.99-12.18-50.08-10.11-70.44,2.07-20.39,9.39-35.86,21.3-41.9Z"/>
    <path class="cls-5" d="m461.78,578.22c5.7,11.89,2.67,28.08-7.06,44.72-9.72,16.62-26.07,33.59-46.74,46.92-20.67,13.33-41.72,20.48-59.02,21.28-17.32.8-30.77-4.75-36.47-16.64-5.7-11.89-2.67-28.07,7.07-44.72,9.72-16.62,26.06-33.59,46.74-46.92,20.67-13.33,41.72-20.48,59.02-21.28,17.32-.81,30.77,4.75,36.47,16.64Z"/>
    <path class="cls-5" d="m483.98,585.95c11.06,4.8,18.14,19.36,20.48,39.34,2.33,19.94-.1,45.07-7.86,70.66-7.76,25.59-19.37,46.74-31.85,60.25-12.51,13.55-25.75,19.29-36.81,14.49-11.06-4.8-18.15-19.36-20.48-39.34-2.33-19.94.1-45.07,7.86-70.66,7.76-25.59,19.37-46.74,31.85-60.25,12.51-13.55,25.75-19.29,36.81-14.49Z"/>
    <path class="cls-5" d="m290.66,536.28c-.04,14.96,9.39,28.61,24.82,38.57,15.42,9.95,36.78,16.17,60.42,16.26,23.64.09,45.03-5.96,60.51-15.8,15.48-9.84,24.99-23.42,25.04-38.37s-9.39-28.61-24.82-38.57c-15.42-9.95-36.78-16.17-60.42-16.26-23.64-.09-45.03,5.96-60.51,15.8-15.48,9.84-24.99,23.42-25.04,38.37Z"/>
    <path class="cls-5" d="m531.11,537.89c-.04,14.96,9.39,28.61,24.82,38.57,15.42,9.95,36.78,16.17,60.42,16.26,23.64.09,45.03-5.96,60.51-15.8,15.48-9.84,24.99-23.41,25.04-38.37.04-14.96-9.39-28.61-24.82-38.57-15.42-9.95-36.78-16.17-60.42-16.26-23.64-.09-45.03,5.96-60.51,15.8-15.48,9.84-24.99,23.41-25.03,38.37Z"/>
    <path class="cls-5" d="m515.07,520.76c6.12,13.14,20.02,19.89,37.69,20.07,17.65.18,38.98-6.22,59.78-19.27,20.8-13.05,37.09-30.25,46.63-47.48,9.54-17.24,12.28-34.43,6.15-47.57-6.12-13.14-20.02-19.89-37.69-20.07-17.65-.18-38.98,6.22-59.78,19.27-20.8,13.05-37.09,30.25-46.63,47.48-9.54,17.25-12.28,34.44-6.15,47.57Z"/>
    <path class="cls-5" d="m498.51,527.51c11.55,6.81,26.25,3.35,40.75-8.05,14.48-11.38,28.65-30.59,39.04-54.94s15.02-49.18,14.13-69.64c-.89-20.49-7.32-36.42-18.86-43.23-11.55-6.81-26.24-3.35-40.75,8.05-14.48,11.38-28.65,30.59-39.04,54.94-10.39,24.35-15.02,49.18-14.13,69.64.89,20.48,7.32,36.41,18.86,43.23Z"/>
    <path class="cls-5" d="m470.88,518.87c5.7-11.89,2.67-28.08-7.06-44.72-9.72-16.62-26.06-33.59-46.74-46.92-20.67-13.33-41.72-20.48-59.02-21.29-17.32-.8-30.77,4.75-36.47,16.64-5.7,11.89-2.67,28.07,7.07,44.72,9.72,16.62,26.06,33.59,46.74,46.92,20.67,13.33,41.72,20.48,59.02,21.28,17.32.8,30.77-4.75,36.47-16.64Z"/>
    <path class="cls-5" d="m464.77,528.49c11.7-2.49,21.2-15.36,26.99-34.53,5.77-19.12,7.78-44.3,4.63-70.99-3.15-26.69-10.86-49.8-20.76-65.59-9.92-15.82-21.92-24.12-33.62-21.64-11.7,2.49-21.2,15.36-26.99,34.53-5.77,19.12-7.78,44.29-4.63,70.99,3.15,26.7,10.86,49.81,20.76,65.59,9.92,15.82,21.92,24.12,33.62,21.63Z"/>
    <ellipse class="cls-7" cx="488.5" cy="546.5" rx="81.5" ry="82.5"/>
    <ellipse class="cls-4" cx="489" cy="546.5" rx="57" ry="57.5"/>
    <path class="cls-7" d="m457.76,555.22l-1.76-2.22c.59.77,1.17,1.51,1.76,2.22l.58.73c8.17,14.91,30.52,35.98,54.5.98l1.17-3.93c-8.74,13.28-31.96,31.74-56.24,2.22Z"/>
    <ellipse class="cls-7" cx="469" cy="529.5" rx="8" ry="8.5"/>
    <ellipse class="cls-7" cx="504" cy="529.5" rx="8" ry="8.5"/>
    <path class="cls-2" d="m469,469.02c9.5,28.68,42.5,76.27,98.48,37.24,8.64-36.38,23.32-113.76,12.96-132.25-32.83,19.26-101.07,65.23-111.43,95.02Z"/>
    <path class="cls-4" d="m503,448l4.04,10.71h13.08l-10.58,6.62,4.04,10.71-10.58-6.62-10.58,6.62,4.04-10.71-10.58-6.62h13.08l4.04-10.71Z"/>
    <path class="cls-4" d="m560.5,399l4.15,11.4h13.44l-10.87,7.05,4.15,11.4-10.87-7.05-10.87,7.05,4.15-11.4-10.87-7.05h13.44l4.15-11.4Z"/>
    <path class="cls-4" d="m540.79,453.25l7.14,7.12,10.01-4.72-5.59,9.12,7.14,7.12-10.6-1.48-5.59,9.12-.96-10.04-10.6-1.48,10.01-4.72-.96-10.04Z"/>
    <path class="cls-4" d="m524.19,428.34l5.26,5.13,6.18-3.36-2.92,6.53,5.26,5.13-7.07-1.1-2.92,6.53-1.44-7.2-7.07-1.1,6.17-3.36-1.44-7.2Z"/>
    <path class="cls-4" d="m528.94,491.51l5.26,5.13,6.18-3.36-2.92,6.53,5.26,5.13-7.07-1.1-2.92,6.53-1.44-7.2-7.07-1.1,6.18-3.36-1.44-7.2Z"/>
    <path class="cls-6" d="m577.79,359.83c1.91-5.29,9.38-5.29,11.29,0l.18.5c.83,2.31,3,3.88,5.45,3.96l.53.02c5.62.18,7.93,7.29,3.49,10.74l-.42.33c-1.94,1.51-2.77,4.05-2.08,6.41l.15.51c1.57,5.4-4.48,9.79-9.13,6.64l-.44-.3c-2.03-1.38-4.7-1.38-6.74,0l-.44.3c-4.65,3.16-10.7-1.24-9.13-6.64l.15-.51c.68-2.36-.14-4.9-2.08-6.41l-.42-.33c-4.44-3.45-2.13-10.56,3.49-10.74l.53-.02c2.46-.08,4.62-1.65,5.45-3.96l.18-.5Z"/>
    <path class="cls-6" d="m588.09,359.48c4.82-2.89,10.61,1.85,8.74,7.15l-.18.5c-.82,2.32-.14,4.9,1.71,6.52l.4.35c4.23,3.7,1.52,10.66-4.1,10.52h-.53c-2.46-.08-4.71,1.37-5.67,3.63l-.21.49c-2.21,5.17-9.67,4.74-11.27-.65l-.15-.51c-.7-2.36-2.77-4.05-5.22-4.27l-.53-.05c-5.6-.5-7.5-7.73-2.87-10.92l.44-.3c2.03-1.39,2.99-3.88,2.45-6.28l-.12-.52c-1.25-5.48,5.04-9.52,9.5-6.1l.42.32c1.95,1.49,4.62,1.65,6.73.39l.46-.27Z"/>
    <rect class="cls-3" x="142" y="85" width="694" height="124"/>
    <path d="m326.23,136.09h5.05l11.86,28.98h.41l11.86-28.98h5.05v34.91h-3.95v-26.52h-.34l-10.91,26.52h-3.82l-10.91-26.52h-.34v26.52h-3.96v-34.91Zm72.16,17.45c0,3.68-.67,6.86-1.99,9.55-1.33,2.68-3.15,4.75-5.47,6.2-2.32,1.46-4.97,2.18-7.94,2.18s-5.62-.73-7.94-2.18c-2.32-1.45-4.14-3.52-5.47-6.2-1.33-2.68-1.99-5.86-1.99-9.55s.67-6.86,1.99-9.54c1.33-2.68,3.15-4.75,5.47-6.21,2.32-1.45,4.97-2.18,7.94-2.18s5.62.73,7.94,2.18c2.32,1.46,4.14,3.52,5.47,6.21,1.33,2.68,1.99,5.86,1.99,9.54Zm-4.09,0c0-3.02-.51-5.57-1.52-7.65-1-2.08-2.36-3.65-4.07-4.72-1.7-1.07-3.61-1.6-5.73-1.6s-4.03.53-5.74,1.6c-1.7,1.07-3.06,2.64-4.07,4.72-1,2.08-1.5,4.63-1.5,7.65s.5,5.57,1.5,7.65c1.01,2.08,2.37,3.65,4.07,4.72,1.71,1.07,3.63,1.6,5.74,1.6s4.02-.53,5.73-1.6c1.72-1.07,3.07-2.64,4.07-4.72,1.01-2.08,1.52-4.63,1.52-7.65Zm8.2,17.46v-3.89h1.02c1.45,0,2.59-.47,3.39-1.4.81-.93,1.39-2.44,1.74-4.52.36-2.08.61-4.84.73-8.27l.61-16.84h21.27v34.91h-4.23v-31.16h-13.02l-.55,13.91c-.14,3.66-.47,6.77-1.01,9.34-.53,2.57-1.47,4.53-2.81,5.88-1.34,1.35-3.3,2.03-5.86,2.03h-1.29Zm66.67-17.46c0,3.68-.66,6.86-1.99,9.55-1.33,2.68-3.15,4.75-5.47,6.2-2.32,1.46-4.97,2.18-7.94,2.18s-5.62-.73-7.94-2.18c-2.32-1.45-4.14-3.52-5.47-6.2-1.33-2.68-1.99-5.86-1.99-9.55s.67-6.86,1.99-9.54c1.33-2.68,3.15-4.75,5.47-6.21,2.32-1.45,4.97-2.18,7.94-2.18s5.62.73,7.94,2.18c2.32,1.46,4.14,3.52,5.47,6.21,1.33,2.68,1.99,5.86,1.99,9.54Zm-4.09,0c0-3.02-.51-5.57-1.52-7.65-1-2.08-2.36-3.65-4.07-4.72-1.7-1.07-3.61-1.6-5.73-1.6s-4.03.53-5.74,1.6c-1.7,1.07-3.06,2.64-4.07,4.72-1,2.08-1.5,4.63-1.5,7.65s.5,5.57,1.5,7.65c1.01,2.08,2.37,3.65,4.07,4.72,1.72,1.07,3.63,1.6,5.74,1.6s4.02-.53,5.73-1.6c1.72-1.07,3.07-2.64,4.07-4.72,1.01-2.08,1.52-4.63,1.52-7.65Zm8.2,25.91v-12.21h2.25c.77-.71,1.5-1.7,2.18-2.98.69-1.29,1.28-3.02,1.76-5.18.49-2.17.81-4.93.97-8.27l.75-14.73h20.73v31.16h4.02v12.14h-4.02v-8.39h-24.61v8.46h-4.02Zm7.3-12.21h17.32v-27.41h-12.89l-.55,10.98c-.14,2.55-.38,4.85-.72,6.92-.34,2.06-.78,3.88-1.31,5.47-.54,1.58-1.15,2.93-1.86,4.04Zm31.75,3.75v-34.91h21.07v3.75h-16.84v11.79h15.75v3.75h-15.75v11.86h17.11v3.75h-21.34Zm58.35-4.02l-.48,12.27h-4.36v-8.25h-2.46v-4.02h7.3Zm-29.66,4.02v-34.91h4.02v31.02h18v-31.02h4.02v34.91h-26.05Zm39.18-20.25h9.95c2.5,0,4.61.41,6.32,1.23,1.73.82,3.03,1.97,3.92,3.46.9,1.49,1.35,3.24,1.35,5.27s-.45,3.81-1.35,5.35c-.89,1.54-2.19,2.75-3.92,3.63-1.72.87-3.82,1.31-6.32,1.31h-13.09v-34.91h4.23v31.23h8.86c1.59,0,2.94-.32,4.04-.95,1.11-.65,1.96-1.48,2.52-2.49.58-1.02.87-2.1.87-3.24,0-1.67-.64-3.11-1.93-4.31-1.28-1.22-3.12-1.82-5.51-1.82h-9.95v-3.75Zm33-14.66l-.34,25.09h-3.95l-.34-25.09h4.64Zm-2.32,35.18c-.84,0-1.56-.3-2.16-.9-.6-.6-.9-1.32-.9-2.16s.3-1.56.9-2.17c.6-.6,1.32-.9,2.16-.9s1.56.3,2.16.9c.6.6.9,1.32.9,2.17,0,.56-.14,1.07-.43,1.53-.27.47-.64.84-1.11,1.12-.45.27-.97.41-1.53.41Z"/>
  </g>
</svg>