<?xml version="1.0" encoding="UTF-8"?>
<svg id="_Шар_2" data-name="Шар 2" xmlns="http://www.w3.org/2000/svg" viewBox="0 0 450.11 451.07">
  <defs>
    <style>
      .cls-1 {
        fill: #e9e398;
      }

      .cls-2 {
        fill: #fff;
        stroke: #000;
      }

      .cls-3 {
        fill: #d3cb6c;
      }
    </style>
  </defs>
  <g id="_Шар_1-2" data-name="Шар 1">
    <path class="cls-2" d="m70.56,428.26c-16.96-21.06-15.75-53.62.16-89.39,15.9-35.74,46.44-74.53,87.85-107.88,41.41-33.35,85.82-54.9,124.13-62.82,38.34-7.92,70.41-2.15,87.37,18.91,16.96,21.06,15.75,53.62-.16,89.39-15.9,35.74-46.44,74.53-87.85,107.88-41.41,33.35-85.83,54.9-124.13,62.82-38.34,7.92-70.41,2.15-87.37-18.91Z"/>
    <path class="cls-2" d="m5.11,41.17C16.18,16.5,45.75,2.81,84.85.77c39.07-2.04,87.49,7.58,135.99,29.36,48.5,21.78,87.86,51.58,112.29,82.14,24.45,30.58,33.85,61.77,22.77,86.44-11.08,24.67-40.65,38.36-79.74,40.4-39.07,2.04-87.49-7.58-135.99-29.36-48.5-21.78-87.86-51.59-112.29-82.14C3.44,97.03-5.97,65.83,5.11,41.17Z"/>
    <ellipse class="cls-3" cx="352.11" cy="191.7" rx="98" ry="97"/>
    <ellipse class="cls-1" cx="352.71" cy="187" rx="68.54" ry="67.61"/>
    <path class="cls-3" d="m315.15,199.6l-2.11-2.61c.7.9,1.41,1.77,2.11,2.61l.7.86c9.83,17.53,36.7,42.31,65.53,1.16l1.4-4.62c-10.51,15.61-38.43,37.32-67.63,2.61Z"/>
    <ellipse class="cls-3" cx="328.67" cy="169.36" rx="9.62" ry="9.99"/>
    <ellipse class="cls-3" cx="370.75" cy="169.36" rx="9.62" ry="9.99"/>
  </g>
</svg>