<?xml version="1.0" encoding="UTF-8"?>
<svg id="_Шар_2" data-name="Шар 2" xmlns="http://www.w3.org/2000/svg" viewBox="0 0 463.3 366.37">
  <defs>
    <style>
      .cls-1 {
        fill: #e9e398;
      }

      .cls-2 {
        fill: #fff;
        stroke: #000;
      }

      .cls-3 {
        fill: #d3cb6c;
      }
    </style>
  </defs>
  <g id="_Шар_1-2" data-name="Шар 1">
    <path class="cls-2" d="m12.75,343.56c-16.96-21.06-15.75-53.62.16-89.39,15.9-35.74,46.44-74.53,87.85-107.88,41.41-33.35,85.82-54.9,124.13-62.82,38.34-7.92,70.41-2.15,87.37,18.91,16.96,21.06,15.75,53.62-.16,89.39-15.9,35.74-46.44,74.53-87.85,107.88-41.41,33.35-85.83,54.9-124.13,62.82-38.34,7.92-70.41,2.15-87.37-18.91Z"/>
    <ellipse class="cls-3" cx="365.3" cy="97" rx="98" ry="97"/>
    <ellipse class="cls-1" cx="365.9" cy="92.3" rx="68.54" ry="67.61"/>
    <path class="cls-3" d="m328.34,104.9l-2.11-2.61c.7.9,1.41,1.77,2.11,2.61l.7.86c9.83,17.53,36.7,42.31,65.53,1.16l1.4-4.62c-10.51,15.61-38.43,37.32-67.63,2.61Z"/>
    <ellipse class="cls-3" cx="341.86" cy="74.66" rx="9.62" ry="9.99"/>
    <ellipse class="cls-3" cx="383.94" cy="74.66" rx="9.62" ry="9.99"/>
  </g>
</svg>