<?xml version="1.0" encoding="UTF-8"?>
<svg id="_Шар_2" data-name="Шар 2" xmlns="http://www.w3.org/2000/svg" viewBox="0 0 705.89 688.4">
  <defs>
    <style>
      .cls-1 {
        fill: #e9e398;
      }

      .cls-2 {
        fill: #fff;
        stroke: #000;
      }

      .cls-3 {
        fill: #d3cb6c;
      }
    </style>
  </defs>
  <g id="_Шар_1-2" data-name="Шар 1">
    <path class="cls-2" d="m333.54,322.32c11.12-3.85,23.49-2.5,36.37,3.3,12.88,5.8,26.24,16.05,39.3,29.95,26.12,27.79,50.99,70.11,68.38,120.36,17.39,50.25,23.99,98.89,20.63,136.88-1.68,19-5.85,35.31-12.39,47.83-6.54,12.52-15.43,21.23-26.55,25.07-11.12,3.85-23.49,2.5-36.37-3.3-12.88-5.8-26.24-16.05-39.3-29.95-26.12-27.79-50.99-70.11-68.38-120.36-17.39-50.25-23.99-98.89-20.63-136.88,1.68-19,5.85-35.31,12.39-47.83,6.54-12.52,15.43-21.23,26.55-25.07Z"/>
    <path class="cls-2" d="m321.25,340.71c1.27-25.96,23.74-48.56,59.37-64.04,35.6-15.47,84.17-23.75,137.28-21.16,53.11,2.59,100.65,15.57,134.57,34.43,33.95,18.88,54.12,43.55,52.86,69.51-1.27,25.96-23.74,48.56-59.37,64.04-35.6,15.47-84.17,23.75-137.28,21.16-53.11-2.59-100.65-15.57-134.57-34.42-33.95-18.88-54.12-43.56-52.86-69.51Z"/>
    <path class="cls-2" d="m70.56,596.17c-16.96-21.06-15.75-53.62.16-89.39,15.9-35.74,46.44-74.53,87.85-107.88,41.41-33.35,85.82-54.9,124.13-62.82,38.34-7.92,70.41-2.15,87.37,18.91,16.96,21.06,15.75,53.62-.16,89.39-15.9,35.74-46.44,74.53-87.85,107.88-41.41,33.35-85.83,54.91-124.13,62.82-38.34,7.92-70.41,2.15-87.37-18.91Z"/>
    <path class="cls-2" d="m5.11,209.08c11.08-24.67,40.65-38.36,79.74-40.4,39.07-2.04,87.49,7.58,135.99,29.36,48.5,21.78,87.86,51.59,112.29,82.14,24.45,30.58,33.85,61.77,22.77,86.44-11.08,24.67-40.65,38.36-79.74,40.4-39.07,2.04-87.49-7.58-135.99-29.36-48.5-21.78-87.86-51.59-112.29-82.14C3.44,264.95-5.97,233.75,5.11,209.08Z"/>
    <path class="cls-2" d="m426.07,2.01c26.25,6.5,45,33.14,53.99,71.25,8.98,38.07,8.16,87.43-4.61,139.05-12.77,51.61-35.07,95.66-60.77,125.15-25.72,29.51-54.74,44.34-80.98,37.84-26.25-6.5-45-33.14-53.99-71.24-8.98-38.07-8.16-87.43,4.61-139.05,12.77-51.61,35.07-95.66,60.77-125.15,25.72-29.51,54.74-44.34,80.99-37.84Z"/>
    <ellipse class="cls-3" cx="352.11" cy="359.61" rx="98" ry="97"/>
    <ellipse class="cls-1" cx="352.71" cy="354.91" rx="68.54" ry="67.61"/>
    <path class="cls-3" d="m315.15,367.52l-2.11-2.61c.71.9,1.41,1.77,2.11,2.61l.7.86c9.83,17.53,36.7,42.31,65.53,1.16l1.4-4.62c-10.51,15.61-38.43,37.33-67.63,2.61Z"/>
    <ellipse class="cls-3" cx="328.67" cy="337.28" rx="9.62" ry="9.99"/>
    <ellipse class="cls-3" cx="370.75" cy="337.28" rx="9.62" ry="9.99"/>
  </g>
</svg>