<?xml version="1.0" encoding="UTF-8"?>
<svg id="_Шар_2" data-name="Шар 2" xmlns="http://www.w3.org/2000/svg" viewBox="0 0 694 705.59">
  <defs>
    <style>
      .cls-1 {
        fill: #61af66;
      }

      .cls-2, .cls-3 {
        fill: #fff;
      }

      .cls-4 {
        fill: #4261aa;
      }

      .cls-5 {
        fill: #c8dd9f;
      }

      .cls-6 {
        fill: #e9e398;
      }

      .cls-3 {
        stroke: #000;
      }

      .cls-7 {
        fill: #d3cb6c;
      }
    </style>
  </defs>
  <g id="_Шар_1-2" data-name="Шар 1">
    <path class="cls-2" d="m452,547.13c25.94,74.98,19.73,145.19-13.87,156.81-33.6,11.63-81.88-39.73-107.82-114.7-25.95-74.98-19.73-145.19,13.87-156.81,33.61-11.63,81.88,39.73,107.82,114.71Z"/>
    <path class="cls-2" d="m481.72,382.61c79.24,3.87,141.94,38.72,140.03,77.85-1.91,39.13-67.7,67.71-146.94,63.85-79.25-3.87-141.94-38.72-140.03-77.85,1.91-39.13,67.7-67.71,146.94-63.85Z"/>
    <path class="cls-2" d="m213.68,489.56c61.8-49.76,132.6-64.39,158.14-32.67s-3.85,97.77-65.64,147.53c-61.8,49.76-132.6,64.39-158.14,32.67-25.54-31.72,3.85-97.77,65.64-147.53Z"/>
    <path class="cls-2" d="m260.47,339.83c72.38,32.5,117.52,88.97,100.84,126.12-16.68,37.15-88.88,40.92-161.26,8.41-72.38-32.5-117.52-88.97-100.84-126.12,16.68-37.15,88.88-40.92,161.26-8.41Z"/>
    <path class="cls-2" d="m450.42,350.88c-19.06,77.02-66.56,131.52-106.09,121.74-39.53-9.78-56.13-80.15-37.07-157.16,19.06-77.02,66.56-131.52,106.09-121.74,39.53,9.78,56.13,80.15,37.07,157.16Z"/>
    <ellipse class="cls-7" cx="345.85" cy="449.76" rx="60.74" ry="61.48"/>
    <ellipse class="cls-6" cx="346.22" cy="446.78" rx="42.48" ry="42.85"/>
    <path class="cls-7" d="m322.94,454.77l-1.31-1.65c.44.57.87,1.12,1.31,1.65l.43.54c6.09,11.11,22.74,26.81,40.61.73l.87-2.93c-6.51,9.9-23.82,23.66-41.91,1.65Z"/>
    <ellipse class="cls-7" cx="331.32" cy="435.61" rx="5.96" ry="6.33"/>
    <ellipse class="cls-7" cx="357.4" cy="435.61" rx="5.96" ry="6.33"/>
    <path class="cls-3" d="m451.53,547.29c12.95,37.44,17.87,73.66,15.37,101.96-1.25,14.15-4.36,26.29-9.22,35.6-4.86,9.31-11.46,15.77-19.71,18.62s-17.43,1.86-27.01-2.46c-9.58-4.32-19.52-11.94-29.25-22.29-19.45-20.7-37.98-52.21-50.93-89.65-12.95-37.44-17.87-73.66-15.37-101.96,1.25-14.15,4.36-26.29,9.22-35.6,4.86-9.31,11.46-15.77,19.71-18.62,8.25-2.85,17.43-1.86,27.01,2.46,9.58,4.32,19.52,11.94,29.25,22.29,19.45,20.7,37.98,52.21,50.93,89.65Z"/>
    <path class="cls-3" d="m481.69,383.11c39.56,1.93,74.97,11.59,100.23,25.64,25.29,14.06,40.27,32.42,39.33,51.69-.94,19.27-17.63,36.08-44.17,47.61-26.51,11.52-62.69,17.69-102.25,15.76s-74.97-11.59-100.23-25.64c-25.29-14.06-40.27-32.42-39.33-51.69s17.63-36.08,44.17-47.61c26.51-11.52,62.69-17.69,102.25-15.76Z"/>
    <path class="cls-3" d="m213.99,489.95c30.85-24.84,63.93-40.9,92.45-46.79,28.55-5.9,52.39-1.59,64.98,14.05,12.59,15.64,11.71,39.85-.14,66.48-11.84,26.61-34.58,55.5-65.43,80.35-30.85,24.84-63.93,40.9-92.45,46.79-28.55,5.9-52.39,1.59-64.98-14.05-12.59-15.64-11.71-39.84.14-66.48,11.84-26.61,34.58-55.5,65.43-80.34Z"/>
    <path class="cls-3" d="m260.26,340.28c36.13,16.23,65.44,38.42,83.63,61.17,18.21,22.77,25.18,45.97,16.96,64.29-8.23,18.32-30.2,28.51-59.31,30.03-29.09,1.52-65.15-5.64-101.28-21.87-36.13-16.23-65.44-38.42-83.63-61.17-18.21-22.77-25.18-45.97-16.96-64.29,8.23-18.32,30.2-28.51,59.31-30.03,29.09-1.52,65.15,5.64,101.28,21.87Z"/>
    <path class="cls-3" d="m449.93,350.76c-9.51,38.45-26.12,71.25-45.26,93.21-19.15,21.98-40.73,32.99-60.23,28.16-19.49-4.82-33.45-24.62-40.14-53-6.69-28.35-6.08-65.11,3.43-103.56,9.51-38.45,26.12-71.25,45.26-93.21,19.16-21.98,40.74-32.98,60.23-28.16,19.49,4.82,33.45,24.62,40.14,53,6.69,28.35,6.08,65.11-3.43,103.56Z"/>
    <ellipse class="cls-7" cx="358.14" cy="460.57" rx="73.03" ry="72.29"/>
    <ellipse class="cls-6" cx="358.59" cy="457.07" rx="51.08" ry="50.38"/>
    <path class="cls-7" d="m330.6,466.46l-1.58-1.95c.53.67,1.05,1.32,1.58,1.95l.52.64c7.33,13.07,27.35,31.53,48.83.86l1.05-3.45c-7.83,11.64-28.64,27.82-50.4,1.95Z"/>
    <ellipse class="cls-7" cx="340.67" cy="443.92" rx="7.17" ry="7.45"/>
    <ellipse class="cls-7" cx="372.04" cy="443.92" rx="7.17" ry="7.45"/>
    <path class="cls-1" d="m357.84,388.45c7.02,21.26,31.41,56.55,72.79,27.61,6.38-26.98,17.24-84.35,9.58-98.06-24.26,14.28-74.7,48.36-82.36,70.45Z"/>
    <path class="cls-6" d="m382.34,373l3.03,7.95h9.81l-7.93,4.91,3.03,7.95-7.93-4.91-7.93,4.91,3.03-7.95-7.93-4.91h9.81l3.03-7.95Z"/>
    <path class="cls-6" d="m425.84,336l3.14,8.64h10.17l-8.23,5.34,3.14,8.64-8.23-5.34-8.23,5.34,3.14-8.64-8.23-5.34h10.17l3.14-8.64Z"/>
    <path class="cls-6" d="m410.9,376.65l5.32,5.31,7.46-3.52-4.17,6.8,5.32,5.31-7.9-1.11-4.17,6.8-.71-7.48-7.9-1.1,7.46-3.52-.71-7.48Z"/>
    <path class="cls-6" d="m398.53,358.08l3.92,3.82,4.6-2.5-2.18,4.86,3.92,3.82-5.27-.82-2.18,4.86-1.08-5.37-5.27-.82,4.6-2.5-1.08-5.37Z"/>
    <path class="cls-6" d="m402.07,405.16l3.92,3.82,4.6-2.5-2.18,4.86,3.92,3.82-5.27-.82-2.18,4.86-1.08-5.37-5.27-.82,4.6-2.5-1.08-5.37Z"/>
    <path class="cls-4" d="m438.36,307.33c1.46-4.04,7.17-4.04,8.63,0,.64,1.77,2.29,2.97,4.17,3.03,4.29.14,6.06,5.57,2.67,8.21-1.48,1.15-2.11,3.1-1.59,4.9,1.2,4.12-3.43,7.48-6.98,5.07-1.55-1.06-3.6-1.06-5.15,0-3.55,2.41-8.18-.95-6.98-5.07.52-1.81-.11-3.75-1.59-4.9-3.39-2.63-1.63-8.07,2.67-8.21,1.88-.06,3.53-1.26,4.17-3.03Z"/>
    <path class="cls-4" d="m445.87,306.93c3.69-2.21,8.11,1.41,6.68,5.46-.63,1.77-.11,3.75,1.31,4.98,3.24,2.82,1.16,8.15-3.13,8.04-1.88-.05-3.6,1.06-4.33,2.79-1.69,3.95-7.39,3.62-8.61-.49-.54-1.8-2.12-3.1-3.99-3.26-4.28-.38-5.73-5.91-2.19-8.35,1.55-1.07,2.29-2.97,1.87-4.8-.96-4.19,3.85-7.28,7.26-4.66,1.49,1.14,3.53,1.26,5.14.3Z"/>
    <rect class="cls-5" width="694" height="124"/>
    <path d="m184.23,51.09h5.05l11.86,28.98h.41l11.86-28.98h5.05v34.91h-3.96v-26.52h-.34l-10.91,26.52h-3.82l-10.91-26.52h-.34v26.52h-3.96v-34.91Zm72.16,17.45c0,3.68-.67,6.86-1.99,9.55-1.33,2.68-3.15,4.75-5.47,6.2-2.32,1.45-4.97,2.18-7.94,2.18s-5.62-.73-7.94-2.18c-2.32-1.45-4.14-3.52-5.47-6.2-1.33-2.68-1.99-5.86-1.99-9.55s.66-6.86,1.99-9.55c1.33-2.68,3.15-4.75,5.47-6.2,2.32-1.45,4.97-2.18,7.94-2.18s5.62.73,7.94,2.18c2.32,1.45,4.14,3.52,5.47,6.2,1.33,2.68,1.99,5.86,1.99,9.55Zm-4.09,0c0-3.02-.51-5.57-1.52-7.65-1-2.08-2.36-3.65-4.07-4.72-1.7-1.07-3.61-1.6-5.73-1.6s-4.03.53-5.74,1.6c-1.71,1.07-3.06,2.64-4.07,4.72-1,2.08-1.5,4.63-1.5,7.65s.5,5.57,1.5,7.65c1.01,2.08,2.37,3.65,4.07,4.72,1.72,1.07,3.63,1.6,5.74,1.6s4.02-.53,5.73-1.6c1.72-1.07,3.07-2.64,4.07-4.72,1.01-2.08,1.52-4.63,1.52-7.65Zm8.2,17.45v-3.89h1.02c1.45,0,2.59-.47,3.39-1.4.81-.93,1.39-2.44,1.74-4.52.36-2.08.61-4.84.73-8.27l.61-16.84h21.27v34.91h-4.23v-31.16h-13.02l-.55,13.91c-.14,3.66-.47,6.77-1.01,9.34-.53,2.57-1.47,4.53-2.81,5.88-1.34,1.35-3.3,2.03-5.86,2.03h-1.29Zm66.67-17.45c0,3.68-.66,6.86-1.99,9.55-1.33,2.68-3.15,4.75-5.47,6.2-2.32,1.45-4.97,2.18-7.94,2.18s-5.62-.73-7.94-2.18c-2.32-1.45-4.14-3.52-5.47-6.2-1.33-2.68-1.99-5.86-1.99-9.55s.67-6.86,1.99-9.55c1.33-2.68,3.15-4.75,5.47-6.2,2.32-1.45,4.97-2.18,7.94-2.18s5.62.73,7.94,2.18c2.32,1.45,4.14,3.52,5.47,6.2,1.33,2.68,1.99,5.86,1.99,9.55Zm-4.09,0c0-3.02-.51-5.57-1.52-7.65-1-2.08-2.36-3.65-4.07-4.72-1.7-1.07-3.61-1.6-5.73-1.6s-4.03.53-5.74,1.6c-1.7,1.07-3.06,2.64-4.07,4.72-1,2.08-1.5,4.63-1.5,7.65s.5,5.57,1.5,7.65c1.01,2.08,2.37,3.65,4.07,4.72,1.72,1.07,3.63,1.6,5.74,1.6s4.02-.53,5.73-1.6c1.72-1.07,3.07-2.64,4.07-4.72,1.01-2.08,1.52-4.63,1.52-7.65Zm8.2,25.91v-12.2h2.25c.77-.7,1.5-1.7,2.18-2.98.69-1.3,1.28-3.02,1.76-5.18.49-2.17.81-4.93.97-8.27l.75-14.73h20.73v31.16h4.02v12.14h-4.02v-8.39h-24.61v8.45h-4.02Zm7.3-12.2h17.32v-27.41h-12.89l-.55,10.98c-.14,2.55-.38,4.85-.72,6.92-.34,2.06-.78,3.88-1.31,5.47-.54,1.58-1.15,2.93-1.86,4.04Zm31.75,3.75v-34.91h21.07v3.75h-16.84v11.8h15.75v3.75h-15.75v11.86h17.11v3.75h-21.34Zm58.35-4.02l-.48,12.27h-4.36v-8.25h-2.45v-4.02h7.3Zm-29.66,4.02v-34.91h4.02v31.02h18v-31.02h4.02v34.91h-26.04Zm39.18-20.25h9.95c2.5,0,4.61.41,6.32,1.23,1.73.82,3.03,1.97,3.92,3.46.9,1.49,1.35,3.24,1.35,5.27s-.45,3.81-1.35,5.35c-.89,1.55-2.19,2.76-3.92,3.63-1.72.88-3.82,1.31-6.32,1.31h-13.09v-34.91h4.23v31.23h8.86c1.59,0,2.94-.32,4.04-.95,1.11-.65,1.95-1.48,2.52-2.49.58-1.02.87-2.1.87-3.24,0-1.67-.64-3.11-1.93-4.31-1.28-1.22-3.12-1.82-5.51-1.82h-9.95v-3.75Zm33-14.66l-.34,25.09h-3.95l-.34-25.09h4.64Zm-2.32,35.18c-.84,0-1.56-.3-2.16-.9-.6-.6-.9-1.32-.9-2.16s.3-1.56.9-2.16c.6-.6,1.32-.9,2.16-.9s1.56.3,2.17.9c.6.6.9,1.32.9,2.16,0,.56-.14,1.07-.43,1.53-.27.47-.64.84-1.11,1.12-.45.27-.97.41-1.53.41Z"/>
  </g>
</svg>